<svg width="620" height="216" viewBox="0 0 620 216" fill="none" xmlns="http://www.w3.org/2000/svg">
<rect width="620" height="216" fill="#E9F7EF"/>
<mask id="mask0" mask-type="alpha" maskUnits="userSpaceOnUse" x="0" y="0" width="620" height="216">
<rect width="620" height="216" fill="white"/>
<rect width="620" height="216" stroke="white"/>
</mask>
<g mask="url(#mask0)">
<path d="M544.749 38.0102C553.884 37.7179 563.481 38.4277 568.512 41.7611C573.521 45.0944 573.987 51.0515 573.945 56.9877C573.892 62.917 573.341 68.8325 568.31 73.4398C563.268 78.0541 553.756 81.3673 543.401 81.8844C533.046 82.4016 521.87 80.1368 515.542 75.5216C509.214 70.9204 507.733 63.9827 509.006 57.8285C510.268 51.6673 514.295 46.2966 520.635 42.9501C526.974 39.6177 535.625 38.3094 544.749 38.0102Z" fill="white"/>
<path d="M79.7489 31.7084C83.592 31.5833 87.6287 31.8796 89.7432 33.2806C91.8482 34.6817 92.0406 37.1875 92.0192 39.6848C91.9931 42.179 91.758 44.6677 89.6387 46.607C87.5147 48.5493 83.5112 49.9453 79.1548 50.1653C74.7984 50.3853 70.0986 49.4352 67.4393 47.4952C64.7801 45.5611 64.1614 42.643 64.7008 40.0538C65.2354 37.4617 66.9329 35.2014 69.6017 33.7922C72.2704 32.3888 75.9105 31.8364 79.7489 31.7084Z" fill="white"/>
</g>
<g clip-path="url(#clip0)">
<path d="M367.398 81.7969C367.53 81.7969 367.661 81.7709 367.783 81.7203C367.904 81.6698 368.015 81.5957 368.108 81.5022C368.202 81.4088 368.276 81.2979 368.326 81.1758C368.376 81.0537 368.402 80.9229 368.402 80.7907V70.0578C368.404 69.8964 368.366 69.737 368.293 69.5934C368.219 69.4498 368.112 69.3262 367.981 69.2333C367.849 69.1403 367.697 69.0809 367.537 69.06C367.377 69.039 367.215 69.0573 367.064 69.1132V56.9771C367.064 56.5366 366.977 56.1005 366.809 55.6935C366.641 55.2866 366.394 54.9169 366.083 54.6054C365.773 54.294 365.404 54.0469 364.998 53.8783C364.592 53.7098 364.156 53.623 363.717 53.623H254.275C253.835 53.623 253.4 53.7098 252.994 53.8783C252.588 54.0469 252.219 54.294 251.908 54.6054C251.597 54.9169 251.351 55.2866 251.183 55.6935C251.015 56.1005 250.928 56.5366 250.928 56.9771V204.219C250.928 205.109 251.281 205.962 251.908 206.591C252.536 207.22 253.387 207.573 254.275 207.573H363.717C364.604 207.573 365.456 207.22 366.083 206.591C366.711 205.962 367.064 205.109 367.064 204.219V96.8285C367.215 96.8844 367.377 96.9027 367.537 96.8818C367.697 96.8608 367.849 96.8014 367.981 96.7084C368.112 96.6155 368.219 96.4919 368.293 96.3483C368.366 96.2047 368.404 96.0453 368.402 95.8839V85.151C368.404 84.9896 368.366 84.8302 368.293 84.6866C368.219 84.5429 368.112 84.4194 367.981 84.3264C367.849 84.2335 367.697 84.174 367.537 84.1531C367.377 84.1322 367.215 84.1505 367.064 84.2064V81.7353C367.171 81.775 367.284 81.7958 367.398 81.7969V81.7969Z" fill="#3F3D56"/>
<path d="M357.023 60.1636C357.463 60.1636 357.898 60.2503 358.304 60.4189C358.71 60.5874 359.079 60.8345 359.39 61.1459C359.7 61.4574 359.947 61.8271 360.115 62.2341C360.283 62.641 360.37 63.0772 360.37 63.5176V197.679C360.37 198.569 360.017 199.422 359.39 200.051C358.762 200.68 357.911 201.033 357.023 201.033H260.968C260.081 201.033 259.23 200.68 258.602 200.051C257.974 199.422 257.622 198.569 257.622 197.679V63.5176C257.622 62.6281 257.974 61.775 258.602 61.146C259.23 60.517 260.081 60.1636 260.968 60.1636H357.023Z" fill="white"/>
<path d="M273.412 87.546C274.438 87.546 275.269 86.7126 275.269 85.6846C275.269 84.6566 274.438 83.8232 273.412 83.8232C272.386 83.8232 271.555 84.6566 271.555 85.6846C271.555 86.7126 272.386 87.546 273.412 87.546Z" fill="#E6E6E6"/>
<path d="M282.814 87.546C283.84 87.546 284.672 86.7126 284.672 85.6846C284.672 84.6566 283.84 83.8232 282.814 83.8232C281.788 83.8232 280.957 84.6566 280.957 85.6846C280.957 86.7126 281.788 87.546 282.814 87.546Z" fill="#E6E6E6"/>
<path d="M292.216 87.546C293.242 87.546 294.074 86.7126 294.074 85.6846C294.074 84.6566 293.242 83.8232 292.216 83.8232C291.19 83.8232 290.359 84.6566 290.359 85.6846C290.359 86.7126 291.19 87.546 292.216 87.546Z" fill="#E6E6E6"/>
<path d="M301.618 87.546C302.644 87.546 303.476 86.7126 303.476 85.6846C303.476 84.6566 302.644 83.8232 301.618 83.8232C300.592 83.8232 299.761 84.6566 299.761 85.6846C299.761 86.7126 300.592 87.546 301.618 87.546Z" fill="#E6E6E6"/>
<path d="M311.02 87.546C312.046 87.546 312.878 86.7126 312.878 85.6846C312.878 84.6566 312.046 83.8232 311.02 83.8232C309.994 83.8232 309.163 84.6566 309.163 85.6846C309.163 86.7126 309.994 87.546 311.02 87.546Z" fill="#E6E6E6"/>
<path d="M320.422 87.546C321.448 87.546 322.28 86.7126 322.28 85.6846C322.28 84.6566 321.448 83.8232 320.422 83.8232C319.397 83.8232 318.565 84.6566 318.565 85.6846C318.565 86.7126 319.397 87.546 320.422 87.546Z" fill="#E6E6E6"/>
<path d="M329.824 87.546C330.85 87.546 331.682 86.7126 331.682 85.6846C331.682 84.6566 330.85 83.8232 329.824 83.8232C328.799 83.8232 327.967 84.6566 327.967 85.6846C327.967 86.7126 328.799 87.546 329.824 87.546Z" fill="#E6E6E6"/>
<path d="M339.227 87.546C340.252 87.546 341.084 86.7126 341.084 85.6846C341.084 84.6566 340.252 83.8232 339.227 83.8232C338.201 83.8232 337.369 84.6566 337.369 85.6846C337.369 86.7126 338.201 87.546 339.227 87.546Z" fill="#E6E6E6"/>
<path d="M348.628 87.546C349.654 87.546 350.486 86.7126 350.486 85.6846C350.486 84.6566 349.654 83.8232 348.628 83.8232C347.603 83.8232 346.771 84.6566 346.771 85.6846C346.771 86.7126 347.603 87.546 348.628 87.546Z" fill="#E6E6E6"/>
<path d="M358.03 87.546C359.056 87.546 359.888 86.7126 359.888 85.6846C359.888 84.6566 359.056 83.8232 358.03 83.8232C357.005 83.8232 356.173 84.6566 356.173 85.6846C356.173 86.7126 357.005 87.546 358.03 87.546Z" fill="#E6E6E6"/>
<path d="M273.412 97.087C274.438 97.087 275.269 96.2536 275.269 95.2256C275.269 94.1976 274.438 93.3643 273.412 93.3643C272.386 93.3643 271.555 94.1976 271.555 95.2256C271.555 96.2536 272.386 97.087 273.412 97.087Z" fill="#E6E6E6"/>
<path d="M282.814 97.087C283.84 97.087 284.672 96.2536 284.672 95.2256C284.672 94.1976 283.84 93.3643 282.814 93.3643C281.788 93.3643 280.957 94.1976 280.957 95.2256C280.957 96.2536 281.788 97.087 282.814 97.087Z" fill="#E6E6E6"/>
<path d="M292.216 97.087C293.242 97.087 294.074 96.2536 294.074 95.2256C294.074 94.1976 293.242 93.3643 292.216 93.3643C291.19 93.3643 290.359 94.1976 290.359 95.2256C290.359 96.2536 291.19 97.087 292.216 97.087Z" fill="#E6E6E6"/>
<path d="M301.618 97.087C302.644 97.087 303.476 96.2536 303.476 95.2256C303.476 94.1976 302.644 93.3643 301.618 93.3643C300.592 93.3643 299.761 94.1976 299.761 95.2256C299.761 96.2536 300.592 97.087 301.618 97.087Z" fill="#E6E6E6"/>
<path d="M311.02 97.087C312.046 97.087 312.878 96.2536 312.878 95.2256C312.878 94.1976 312.046 93.3643 311.02 93.3643C309.994 93.3643 309.163 94.1976 309.163 95.2256C309.163 96.2536 309.994 97.087 311.02 97.087Z" fill="#E6E6E6"/>
<path d="M320.422 97.087C321.448 97.087 322.28 96.2536 322.28 95.2256C322.28 94.1976 321.448 93.3643 320.422 93.3643C319.397 93.3643 318.565 94.1976 318.565 95.2256C318.565 96.2536 319.397 97.087 320.422 97.087Z" fill="#E6E6E6"/>
<path d="M329.824 97.087C330.85 97.087 331.682 96.2536 331.682 95.2256C331.682 94.1976 330.85 93.3643 329.824 93.3643C328.799 93.3643 327.967 94.1976 327.967 95.2256C327.967 96.2536 328.799 97.087 329.824 97.087Z" fill="#E6E6E6"/>
<path d="M339.227 97.087C340.252 97.087 341.084 96.2536 341.084 95.2256C341.084 94.1976 340.252 93.3643 339.227 93.3643C338.201 93.3643 337.369 94.1976 337.369 95.2256C337.369 96.2536 338.201 97.087 339.227 97.087Z" fill="#E6E6E6"/>
<path d="M348.628 97.087C349.654 97.087 350.486 96.2536 350.486 95.2256C350.486 94.1976 349.654 93.3643 348.628 93.3643C347.603 93.3643 346.771 94.1976 346.771 95.2256C346.771 96.2536 347.603 97.087 348.628 97.087Z" fill="#E6E6E6"/>
<path d="M358.03 97.087C359.056 97.087 359.888 96.2536 359.888 95.2256C359.888 94.1976 359.056 93.3643 358.03 93.3643C357.005 93.3643 356.173 94.1976 356.173 95.2256C356.173 96.2536 357.005 97.087 358.03 97.087Z" fill="#E6E6E6"/>
<path d="M273.412 106.628C274.438 106.628 275.269 105.794 275.269 104.766C275.269 103.738 274.438 102.905 273.412 102.905C272.386 102.905 271.555 103.738 271.555 104.766C271.555 105.794 272.386 106.628 273.412 106.628Z" fill="#E6E6E6"/>
<path d="M282.814 106.628C283.84 106.628 284.672 105.794 284.672 104.766C284.672 103.738 283.84 102.905 282.814 102.905C281.788 102.905 280.957 103.738 280.957 104.766C280.957 105.794 281.788 106.628 282.814 106.628Z" fill="#E6E6E6"/>
<path d="M292.216 106.628C293.242 106.628 294.074 105.794 294.074 104.766C294.074 103.738 293.242 102.905 292.216 102.905C291.19 102.905 290.359 103.738 290.359 104.766C290.359 105.794 291.19 106.628 292.216 106.628Z" fill="#E6E6E6"/>
<path d="M301.618 106.628C302.644 106.628 303.476 105.794 303.476 104.766C303.476 103.738 302.644 102.905 301.618 102.905C300.592 102.905 299.761 103.738 299.761 104.766C299.761 105.794 300.592 106.628 301.618 106.628Z" fill="#E6E6E6"/>
<path d="M311.02 106.628C312.046 106.628 312.878 105.794 312.878 104.766C312.878 103.738 312.046 102.905 311.02 102.905C309.994 102.905 309.163 103.738 309.163 104.766C309.163 105.794 309.994 106.628 311.02 106.628Z" fill="#E6E6E6"/>
<path d="M320.422 106.628C321.448 106.628 322.28 105.794 322.28 104.766C322.28 103.738 321.448 102.905 320.422 102.905C319.397 102.905 318.565 103.738 318.565 104.766C318.565 105.794 319.397 106.628 320.422 106.628Z" fill="#E6E6E6"/>
<path d="M329.824 106.628C330.85 106.628 331.682 105.794 331.682 104.766C331.682 103.738 330.85 102.905 329.824 102.905C328.799 102.905 327.967 103.738 327.967 104.766C327.967 105.794 328.799 106.628 329.824 106.628Z" fill="#E6E6E6"/>
<path d="M339.227 106.628C340.252 106.628 341.084 105.794 341.084 104.766C341.084 103.738 340.252 102.905 339.227 102.905C338.201 102.905 337.369 103.738 337.369 104.766C337.369 105.794 338.201 106.628 339.227 106.628Z" fill="#E6E6E6"/>
<path d="M348.628 106.628C349.654 106.628 350.486 105.794 350.486 104.766C350.486 103.738 349.654 102.905 348.628 102.905C347.603 102.905 346.771 103.738 346.771 104.766C346.771 105.794 347.603 106.628 348.628 106.628Z" fill="#E6E6E6"/>
<path d="M358.03 106.628C359.056 106.628 359.888 105.794 359.888 104.766C359.888 103.738 359.056 102.905 358.03 102.905C357.005 102.905 356.173 103.738 356.173 104.766C356.173 105.794 357.005 106.628 358.03 106.628Z" fill="#E6E6E6"/>
<path d="M273.412 116.168C274.438 116.168 275.269 115.334 275.269 114.306C275.269 113.278 274.438 112.445 273.412 112.445C272.386 112.445 271.555 113.278 271.555 114.306C271.555 115.334 272.386 116.168 273.412 116.168Z" fill="#E6E6E6"/>
<path d="M282.814 116.168C283.84 116.168 284.672 115.334 284.672 114.306C284.672 113.278 283.84 112.445 282.814 112.445C281.788 112.445 280.957 113.278 280.957 114.306C280.957 115.334 281.788 116.168 282.814 116.168Z" fill="#E6E6E6"/>
<path d="M292.216 116.168C293.242 116.168 294.074 115.334 294.074 114.306C294.074 113.278 293.242 112.445 292.216 112.445C291.19 112.445 290.359 113.278 290.359 114.306C290.359 115.334 291.19 116.168 292.216 116.168Z" fill="#E6E6E6"/>
<path d="M301.618 116.168C302.644 116.168 303.476 115.334 303.476 114.306C303.476 113.278 302.644 112.445 301.618 112.445C300.592 112.445 299.761 113.278 299.761 114.306C299.761 115.334 300.592 116.168 301.618 116.168Z" fill="#E6E6E6"/>
<path d="M311.02 116.168C312.046 116.168 312.878 115.334 312.878 114.306C312.878 113.278 312.046 112.445 311.02 112.445C309.994 112.445 309.163 113.278 309.163 114.306C309.163 115.334 309.994 116.168 311.02 116.168Z" fill="#E6E6E6"/>
<path d="M320.422 116.168C321.448 116.168 322.28 115.334 322.28 114.306C322.28 113.278 321.448 112.445 320.422 112.445C319.397 112.445 318.565 113.278 318.565 114.306C318.565 115.334 319.397 116.168 320.422 116.168Z" fill="#E6E6E6"/>
<path d="M329.824 116.168C330.85 116.168 331.682 115.334 331.682 114.306C331.682 113.278 330.85 112.445 329.824 112.445C328.799 112.445 327.967 113.278 327.967 114.306C327.967 115.334 328.799 116.168 329.824 116.168Z" fill="#E6E6E6"/>
<path d="M339.227 116.168C340.252 116.168 341.084 115.334 341.084 114.306C341.084 113.278 340.252 112.445 339.227 112.445C338.201 112.445 337.369 113.278 337.369 114.306C337.369 115.334 338.201 116.168 339.227 116.168Z" fill="#E6E6E6"/>
<path d="M348.628 116.168C349.654 116.168 350.486 115.334 350.486 114.306C350.486 113.278 349.654 112.445 348.628 112.445C347.603 112.445 346.771 113.278 346.771 114.306C346.771 115.334 347.603 116.168 348.628 116.168Z" fill="#E6E6E6"/>
<path d="M358.03 116.168C359.056 116.168 359.888 115.334 359.888 114.306C359.888 113.278 359.056 112.445 358.03 112.445C357.005 112.445 356.173 113.278 356.173 114.306C356.173 115.334 357.005 116.168 358.03 116.168Z" fill="#E6E6E6"/>
<path d="M273.412 125.708C274.438 125.708 275.269 124.875 275.269 123.847C275.269 122.819 274.438 121.985 273.412 121.985C272.386 121.985 271.555 122.819 271.555 123.847C271.555 124.875 272.386 125.708 273.412 125.708Z" fill="#E6E6E6"/>
<path d="M282.814 125.708C283.84 125.708 284.672 124.875 284.672 123.847C284.672 122.819 283.84 121.985 282.814 121.985C281.788 121.985 280.957 122.819 280.957 123.847C280.957 124.875 281.788 125.708 282.814 125.708Z" fill="#E6E6E6"/>
<path d="M292.216 125.708C293.242 125.708 294.074 124.875 294.074 123.847C294.074 122.819 293.242 121.985 292.216 121.985C291.19 121.985 290.359 122.819 290.359 123.847C290.359 124.875 291.19 125.708 292.216 125.708Z" fill="#E6E6E6"/>
<path d="M301.618 125.708C302.644 125.708 303.476 124.875 303.476 123.847C303.476 122.819 302.644 121.985 301.618 121.985C300.592 121.985 299.761 122.819 299.761 123.847C299.761 124.875 300.592 125.708 301.618 125.708Z" fill="#E6E6E6"/>
<path d="M311.02 125.708C312.046 125.708 312.878 124.875 312.878 123.847C312.878 122.819 312.046 121.985 311.02 121.985C309.994 121.985 309.163 122.819 309.163 123.847C309.163 124.875 309.994 125.708 311.02 125.708Z" fill="#E6E6E6"/>
<path d="M320.422 125.708C321.448 125.708 322.28 124.875 322.28 123.847C322.28 122.819 321.448 121.985 320.422 121.985C319.397 121.985 318.565 122.819 318.565 123.847C318.565 124.875 319.397 125.708 320.422 125.708Z" fill="#E6E6E6"/>
<path d="M329.824 125.708C330.85 125.708 331.682 124.875 331.682 123.847C331.682 122.819 330.85 121.985 329.824 121.985C328.799 121.985 327.967 122.819 327.967 123.847C327.967 124.875 328.799 125.708 329.824 125.708Z" fill="#E6E6E6"/>
<path d="M339.227 125.708C340.252 125.708 341.084 124.875 341.084 123.847C341.084 122.819 340.252 121.985 339.227 121.985C338.201 121.985 337.369 122.819 337.369 123.847C337.369 124.875 338.201 125.708 339.227 125.708Z" fill="#E6E6E6"/>
<path d="M348.628 125.708C349.654 125.708 350.486 124.875 350.486 123.847C350.486 122.819 349.654 121.985 348.628 121.985C347.603 121.985 346.771 122.819 346.771 123.847C346.771 124.875 347.603 125.708 348.628 125.708Z" fill="#E6E6E6"/>
<path d="M358.03 125.708C359.056 125.708 359.888 124.875 359.888 123.847C359.888 122.819 359.056 121.985 358.03 121.985C357.005 121.985 356.173 122.819 356.173 123.847C356.173 124.875 357.005 125.708 358.03 125.708Z" fill="#E6E6E6"/>
<path d="M273.412 135.249C274.438 135.249 275.269 134.416 275.269 133.388C275.269 132.36 274.438 131.526 273.412 131.526C272.386 131.526 271.555 132.36 271.555 133.388C271.555 134.416 272.386 135.249 273.412 135.249Z" fill="#E6E6E6"/>
<path d="M282.814 135.249C283.84 135.249 284.672 134.416 284.672 133.388C284.672 132.36 283.84 131.526 282.814 131.526C281.788 131.526 280.957 132.36 280.957 133.388C280.957 134.416 281.788 135.249 282.814 135.249Z" fill="#E6E6E6"/>
<path d="M292.216 135.249C293.242 135.249 294.074 134.416 294.074 133.388C294.074 132.36 293.242 131.526 292.216 131.526C291.19 131.526 290.359 132.36 290.359 133.388C290.359 134.416 291.19 135.249 292.216 135.249Z" fill="#E6E6E6"/>
<path d="M301.618 135.249C302.644 135.249 303.476 134.416 303.476 133.388C303.476 132.36 302.644 131.526 301.618 131.526C300.592 131.526 299.761 132.36 299.761 133.388C299.761 134.416 300.592 135.249 301.618 135.249Z" fill="#E6E6E6"/>
<path d="M311.02 135.249C312.046 135.249 312.878 134.416 312.878 133.388C312.878 132.36 312.046 131.526 311.02 131.526C309.994 131.526 309.163 132.36 309.163 133.388C309.163 134.416 309.994 135.249 311.02 135.249Z" fill="#E6E6E6"/>
<path d="M320.422 135.249C321.448 135.249 322.28 134.416 322.28 133.388C322.28 132.36 321.448 131.526 320.422 131.526C319.397 131.526 318.565 132.36 318.565 133.388C318.565 134.416 319.397 135.249 320.422 135.249Z" fill="#E6E6E6"/>
<path d="M329.824 135.249C330.85 135.249 331.682 134.416 331.682 133.388C331.682 132.36 330.85 131.526 329.824 131.526C328.799 131.526 327.967 132.36 327.967 133.388C327.967 134.416 328.799 135.249 329.824 135.249Z" fill="#E6E6E6"/>
<path d="M339.227 135.249C340.252 135.249 341.084 134.416 341.084 133.388C341.084 132.36 340.252 131.526 339.227 131.526C338.201 131.526 337.369 132.36 337.369 133.388C337.369 134.416 338.201 135.249 339.227 135.249Z" fill="#E6E6E6"/>
<path d="M348.628 135.249C349.654 135.249 350.486 134.416 350.486 133.388C350.486 132.36 349.654 131.526 348.628 131.526C347.603 131.526 346.771 132.36 346.771 133.388C346.771 134.416 347.603 135.249 348.628 135.249Z" fill="#E6E6E6"/>
<path d="M358.03 135.249C359.056 135.249 359.888 134.416 359.888 133.388C359.888 132.36 359.056 131.526 358.03 131.526C357.005 131.526 356.173 132.36 356.173 133.388C356.173 134.416 357.005 135.249 358.03 135.249Z" fill="#E6E6E6"/>
<path d="M273.412 144.789C274.438 144.789 275.269 143.956 275.269 142.928C275.269 141.9 274.438 141.066 273.412 141.066C272.386 141.066 271.555 141.9 271.555 142.928C271.555 143.956 272.386 144.789 273.412 144.789Z" fill="#E6E6E6"/>
<path d="M282.814 144.789C283.84 144.789 284.672 143.956 284.672 142.928C284.672 141.9 283.84 141.066 282.814 141.066C281.788 141.066 280.957 141.9 280.957 142.928C280.957 143.956 281.788 144.789 282.814 144.789Z" fill="#E6E6E6"/>
<path d="M292.216 144.789C293.242 144.789 294.074 143.956 294.074 142.928C294.074 141.9 293.242 141.066 292.216 141.066C291.19 141.066 290.359 141.9 290.359 142.928C290.359 143.956 291.19 144.789 292.216 144.789Z" fill="#E6E6E6"/>
<path d="M301.618 144.789C302.644 144.789 303.476 143.956 303.476 142.928C303.476 141.9 302.644 141.066 301.618 141.066C300.592 141.066 299.761 141.9 299.761 142.928C299.761 143.956 300.592 144.789 301.618 144.789Z" fill="#E6E6E6"/>
<path d="M311.02 144.789C312.046 144.789 312.878 143.956 312.878 142.928C312.878 141.9 312.046 141.066 311.02 141.066C309.994 141.066 309.163 141.9 309.163 142.928C309.163 143.956 309.994 144.789 311.02 144.789Z" fill="#E6E6E6"/>
<path d="M320.422 144.789C321.448 144.789 322.28 143.956 322.28 142.928C322.28 141.9 321.448 141.066 320.422 141.066C319.397 141.066 318.565 141.9 318.565 142.928C318.565 143.956 319.397 144.789 320.422 144.789Z" fill="#E6E6E6"/>
<path d="M329.824 144.789C330.85 144.789 331.682 143.956 331.682 142.928C331.682 141.9 330.85 141.066 329.824 141.066C328.799 141.066 327.967 141.9 327.967 142.928C327.967 143.956 328.799 144.789 329.824 144.789Z" fill="#E6E6E6"/>
<path d="M339.227 144.789C340.252 144.789 341.084 143.956 341.084 142.928C341.084 141.9 340.252 141.066 339.227 141.066C338.201 141.066 337.369 141.9 337.369 142.928C337.369 143.956 338.201 144.789 339.227 144.789Z" fill="#E6E6E6"/>
<path d="M348.628 144.789C349.654 144.789 350.486 143.956 350.486 142.928C350.486 141.9 349.654 141.066 348.628 141.066C347.603 141.066 346.771 141.9 346.771 142.928C346.771 143.956 347.603 144.789 348.628 144.789Z" fill="#E6E6E6"/>
<path d="M358.03 144.789C359.056 144.789 359.888 143.956 359.888 142.928C359.888 141.9 359.056 141.066 358.03 141.066C357.005 141.066 356.173 141.9 356.173 142.928C356.173 143.956 357.005 144.789 358.03 144.789Z" fill="#E6E6E6"/>
<path d="M273.412 154.33C274.438 154.33 275.269 153.496 275.269 152.468C275.269 151.44 274.438 150.607 273.412 150.607C272.386 150.607 271.555 151.44 271.555 152.468C271.555 153.496 272.386 154.33 273.412 154.33Z" fill="#E6E6E6"/>
<path d="M282.814 154.33C283.84 154.33 284.672 153.496 284.672 152.468C284.672 151.44 283.84 150.607 282.814 150.607C281.788 150.607 280.957 151.44 280.957 152.468C280.957 153.496 281.788 154.33 282.814 154.33Z" fill="#E6E6E6"/>
<path d="M292.216 154.33C293.242 154.33 294.074 153.496 294.074 152.468C294.074 151.44 293.242 150.607 292.216 150.607C291.19 150.607 290.359 151.44 290.359 152.468C290.359 153.496 291.19 154.33 292.216 154.33Z" fill="#E6E6E6"/>
<path d="M301.618 154.33C302.644 154.33 303.476 153.496 303.476 152.468C303.476 151.44 302.644 150.607 301.618 150.607C300.592 150.607 299.761 151.44 299.761 152.468C299.761 153.496 300.592 154.33 301.618 154.33Z" fill="#E6E6E6"/>
<path d="M311.02 154.33C312.046 154.33 312.878 153.496 312.878 152.468C312.878 151.44 312.046 150.607 311.02 150.607C309.994 150.607 309.163 151.44 309.163 152.468C309.163 153.496 309.994 154.33 311.02 154.33Z" fill="#E6E6E6"/>
<path d="M320.422 154.33C321.448 154.33 322.28 153.496 322.28 152.468C322.28 151.44 321.448 150.607 320.422 150.607C319.397 150.607 318.565 151.44 318.565 152.468C318.565 153.496 319.397 154.33 320.422 154.33Z" fill="#E6E6E6"/>
<path d="M329.824 154.33C330.85 154.33 331.682 153.496 331.682 152.468C331.682 151.44 330.85 150.607 329.824 150.607C328.799 150.607 327.967 151.44 327.967 152.468C327.967 153.496 328.799 154.33 329.824 154.33Z" fill="#E6E6E6"/>
<path d="M339.227 154.33C340.252 154.33 341.084 153.496 341.084 152.468C341.084 151.44 340.252 150.607 339.227 150.607C338.201 150.607 337.369 151.44 337.369 152.468C337.369 153.496 338.201 154.33 339.227 154.33Z" fill="#E6E6E6"/>
<path d="M348.628 154.33C349.654 154.33 350.486 153.496 350.486 152.468C350.486 151.44 349.654 150.607 348.628 150.607C347.603 150.607 346.771 151.44 346.771 152.468C346.771 153.496 347.603 154.33 348.628 154.33Z" fill="#E6E6E6"/>
<path d="M358.03 154.33C359.056 154.33 359.888 153.496 359.888 152.468C359.888 151.44 359.056 150.607 358.03 150.607C357.005 150.607 356.173 151.44 356.173 152.468C356.173 153.496 357.005 154.33 358.03 154.33Z" fill="#E6E6E6"/>
<path d="M273.412 163.87C274.438 163.87 275.269 163.037 275.269 162.009C275.269 160.981 274.438 160.147 273.412 160.147C272.386 160.147 271.555 160.981 271.555 162.009C271.555 163.037 272.386 163.87 273.412 163.87Z" fill="#E6E6E6"/>
<path d="M282.814 163.87C283.84 163.87 284.672 163.037 284.672 162.009C284.672 160.981 283.84 160.147 282.814 160.147C281.788 160.147 280.957 160.981 280.957 162.009C280.957 163.037 281.788 163.87 282.814 163.87Z" fill="#E6E6E6"/>
<path d="M292.216 163.87C293.242 163.87 294.074 163.037 294.074 162.009C294.074 160.981 293.242 160.147 292.216 160.147C291.19 160.147 290.359 160.981 290.359 162.009C290.359 163.037 291.19 163.87 292.216 163.87Z" fill="#E6E6E6"/>
<path d="M301.618 163.87C302.644 163.87 303.476 163.037 303.476 162.009C303.476 160.981 302.644 160.147 301.618 160.147C300.592 160.147 299.761 160.981 299.761 162.009C299.761 163.037 300.592 163.87 301.618 163.87Z" fill="#E6E6E6"/>
<path d="M311.02 163.87C312.046 163.87 312.878 163.037 312.878 162.009C312.878 160.981 312.046 160.147 311.02 160.147C309.994 160.147 309.163 160.981 309.163 162.009C309.163 163.037 309.994 163.87 311.02 163.87Z" fill="#E6E6E6"/>
<path d="M320.422 163.87C321.448 163.87 322.28 163.037 322.28 162.009C322.28 160.981 321.448 160.147 320.422 160.147C319.397 160.147 318.565 160.981 318.565 162.009C318.565 163.037 319.397 163.87 320.422 163.87Z" fill="#E6E6E6"/>
<path d="M329.824 163.87C330.85 163.87 331.682 163.037 331.682 162.009C331.682 160.981 330.85 160.147 329.824 160.147C328.799 160.147 327.967 160.981 327.967 162.009C327.967 163.037 328.799 163.87 329.824 163.87Z" fill="#E6E6E6"/>
<path d="M339.227 163.87C340.252 163.87 341.084 163.037 341.084 162.009C341.084 160.981 340.252 160.147 339.227 160.147C338.201 160.147 337.369 160.981 337.369 162.009C337.369 163.037 338.201 163.87 339.227 163.87Z" fill="#E6E6E6"/>
<path d="M348.628 163.87C349.654 163.87 350.486 163.037 350.486 162.009C350.486 160.981 349.654 160.147 348.628 160.147C347.603 160.147 346.771 160.981 346.771 162.009C346.771 163.037 347.603 163.87 348.628 163.87Z" fill="#E6E6E6"/>
<path d="M358.03 163.87C359.056 163.87 359.888 163.037 359.888 162.009C359.888 160.981 359.056 160.147 358.03 160.147C357.005 160.147 356.173 160.981 356.173 162.009C356.173 163.037 357.005 163.87 358.03 163.87Z" fill="#E6E6E6"/>
<path d="M273.412 173.411C274.438 173.411 275.269 172.577 275.269 171.549C275.269 170.521 274.438 169.688 273.412 169.688C272.386 169.688 271.555 170.521 271.555 171.549C271.555 172.577 272.386 173.411 273.412 173.411Z" fill="#E6E6E6"/>
<path d="M282.814 173.411C283.84 173.411 284.672 172.577 284.672 171.549C284.672 170.521 283.84 169.688 282.814 169.688C281.788 169.688 280.957 170.521 280.957 171.549C280.957 172.577 281.788 173.411 282.814 173.411Z" fill="#E6E6E6"/>
<path d="M292.216 173.411C293.242 173.411 294.074 172.577 294.074 171.549C294.074 170.521 293.242 169.688 292.216 169.688C291.19 169.688 290.359 170.521 290.359 171.549C290.359 172.577 291.19 173.411 292.216 173.411Z" fill="#E6E6E6"/>
<path d="M301.618 173.411C302.644 173.411 303.476 172.577 303.476 171.549C303.476 170.521 302.644 169.688 301.618 169.688C300.592 169.688 299.761 170.521 299.761 171.549C299.761 172.577 300.592 173.411 301.618 173.411Z" fill="#E6E6E6"/>
<path d="M311.02 173.411C312.046 173.411 312.878 172.577 312.878 171.549C312.878 170.521 312.046 169.688 311.02 169.688C309.994 169.688 309.163 170.521 309.163 171.549C309.163 172.577 309.994 173.411 311.02 173.411Z" fill="#E6E6E6"/>
<path d="M320.422 173.411C321.448 173.411 322.28 172.577 322.28 171.549C322.28 170.521 321.448 169.688 320.422 169.688C319.397 169.688 318.565 170.521 318.565 171.549C318.565 172.577 319.397 173.411 320.422 173.411Z" fill="#E6E6E6"/>
<path d="M329.824 173.411C330.85 173.411 331.682 172.577 331.682 171.549C331.682 170.521 330.85 169.688 329.824 169.688C328.799 169.688 327.967 170.521 327.967 171.549C327.967 172.577 328.799 173.411 329.824 173.411Z" fill="#E6E6E6"/>
<path d="M339.227 173.411C340.252 173.411 341.084 172.577 341.084 171.549C341.084 170.521 340.252 169.688 339.227 169.688C338.201 169.688 337.369 170.521 337.369 171.549C337.369 172.577 338.201 173.411 339.227 173.411Z" fill="#E6E6E6"/>
<path d="M348.628 173.411C349.654 173.411 350.486 172.577 350.486 171.549C350.486 170.521 349.654 169.688 348.628 169.688C347.603 169.688 346.771 170.521 346.771 171.549C346.771 172.577 347.603 173.411 348.628 173.411Z" fill="#E6E6E6"/>
<path d="M358.03 173.411C359.056 173.411 359.888 172.577 359.888 171.549C359.888 170.521 359.056 169.688 358.03 169.688C357.005 169.688 356.173 170.521 356.173 171.549C356.173 172.577 357.005 173.411 358.03 173.411Z" fill="#E6E6E6"/>
<path d="M178.362 173.707L173.268 169.31C173.465 166.127 173.841 162.959 174.395 159.818L177.198 160.986L174.59 158.735C175.312 154.859 176.036 152.338 176.036 152.338C176.036 152.338 186.313 161.371 192.102 172.432L189.644 180.72L193.442 175.226C194.021 176.543 194.515 177.895 194.924 179.274C198.999 193.192 197.766 205.808 192.17 207.453C186.575 209.098 178.736 199.149 174.662 185.231C173.399 180.916 173.051 176.116 173.173 171.545L178.362 173.707Z" fill="#B3B6BA"/>
<path d="M165.014 184.632L158.385 183.506C156.912 180.679 155.6 177.772 154.454 174.797L157.456 174.345L154.062 173.769C152.681 170.076 152 167.543 152 167.543C152 167.543 165.457 169.952 176.118 176.423L178.288 184.79L178.707 178.12C179.881 178.948 181.002 179.849 182.063 180.817C192.73 190.621 198.182 202.06 194.24 206.367C190.299 210.673 178.457 206.217 167.79 196.413C164.483 193.374 161.71 189.444 159.456 185.469L165.014 184.632Z" fill="#CCCFD1"/>
<path d="M468 207.472H152V208.271H468V207.472Z" fill="#3F3D56"/>
<path d="M308.996 58.319C309.735 58.319 310.334 57.7183 310.334 56.9774C310.334 56.2364 309.735 55.6357 308.996 55.6357C308.256 55.6357 307.657 56.2364 307.657 56.9774C307.657 57.7183 308.256 58.319 308.996 58.319Z" fill="white"/>
<path d="M346.648 62.6792H271.679C270.569 62.6792 269.67 63.5802 269.67 64.6916V66.704C269.67 67.8155 270.569 68.7165 271.679 68.7165H346.648C347.757 68.7165 348.656 67.8155 348.656 66.704V64.6916C348.656 63.5802 347.757 62.6792 346.648 62.6792Z" fill="#E6E6E6"/>
<path d="M318.869 66.0331H299.123C299.079 66.0333 299.035 66.0248 298.994 66.008C298.953 65.9913 298.916 65.9666 298.885 65.9354C298.854 65.9043 298.829 65.8672 298.812 65.8264C298.795 65.7856 298.786 65.7419 298.786 65.6977C298.786 65.6535 298.795 65.6098 298.812 65.569C298.829 65.5282 298.854 65.4912 298.885 65.46C298.916 65.4288 298.953 65.4042 298.994 65.3874C299.035 65.3706 299.079 65.3621 299.123 65.3623H318.869C318.913 65.3621 318.957 65.3706 318.998 65.3874C319.038 65.4042 319.075 65.4288 319.107 65.46C319.138 65.4912 319.163 65.5282 319.18 65.569C319.197 65.6098 319.205 65.6535 319.205 65.6977C319.205 65.7419 319.197 65.7856 319.18 65.8264C319.163 65.8672 319.138 65.9043 319.107 65.9354C319.075 65.9666 319.038 65.9913 318.998 66.008C318.957 66.0248 318.913 66.0333 318.869 66.0331V66.0331Z" fill="white"/>
<path d="M348.795 136.11L348.795 84.6411C348.795 84.2134 347.724 83.8667 346.404 83.8667L277.828 83.8667C276.508 83.8667 275.438 84.2134 275.438 84.6411L275.438 136.11C275.438 136.537 276.508 136.884 277.828 136.884L346.404 136.884C347.724 136.884 348.795 136.537 348.795 136.11Z" fill="#1F7042"/>
<path d="M308.589 130.714C308.589 130.851 308.441 130.982 308.176 131.078C307.912 131.175 307.553 131.229 307.179 131.229L304.357 131.229C303.983 131.229 303.624 131.175 303.36 131.078C303.095 130.982 302.947 130.851 302.947 130.714L302.947 90.0369C302.947 89.9003 303.095 89.7693 303.36 89.6728C303.624 89.5762 303.983 89.522 304.357 89.522L307.179 89.522C307.553 89.522 307.912 89.5762 308.176 89.6728C308.441 89.7693 308.589 89.9003 308.589 90.0369L308.589 130.714Z" fill="white"/>
<path d="M322.696 130.714C322.696 130.851 322.548 130.982 322.283 131.078C322.019 131.175 321.66 131.229 321.286 131.229L318.464 131.229C318.09 131.229 317.731 131.175 317.467 131.078C317.202 130.982 317.053 130.851 317.053 130.714L317.053 90.0369C317.053 89.9003 317.202 89.7693 317.467 89.6728C317.731 89.5762 318.09 89.522 318.464 89.522L321.286 89.522C321.66 89.522 322.019 89.5762 322.283 89.6728C322.548 89.7693 322.696 89.9003 322.696 90.0369L322.696 130.714Z" fill="white"/>
<path d="M336.803 130.714C336.803 130.851 336.655 130.982 336.39 131.078C336.126 131.175 335.767 131.229 335.393 131.229L332.571 131.229C332.197 131.229 331.838 131.175 331.574 131.078C331.309 130.982 331.161 130.851 331.161 130.714L331.161 90.0369C331.161 89.9003 331.309 89.7693 331.574 89.6728C331.838 89.5762 332.197 89.522 332.571 89.522L335.393 89.522C335.767 89.522 336.126 89.5762 336.39 89.6728C336.655 89.7693 336.803 89.9003 336.803 90.0369L336.803 130.714Z" fill="white"/>
<path d="M294.482 130.714C294.482 130.851 294.334 130.982 294.069 131.078C293.804 131.175 293.446 131.229 293.071 131.229L290.25 131.229C289.876 131.229 289.517 131.175 289.253 131.078C288.988 130.982 288.839 130.851 288.839 130.714L288.839 90.0369C288.839 89.9003 288.988 89.7693 289.253 89.6728C289.517 89.5762 289.876 89.522 290.25 89.522L293.071 89.522C293.446 89.522 293.804 89.5762 294.069 89.6728C294.334 89.7693 294.482 89.9003 294.482 90.0369L294.482 130.714Z" fill="white"/>
<path d="M238.334 94.4633C238.335 105.573 233.991 116.24 226.235 124.177C218.478 132.114 207.926 136.689 196.843 136.919C196.55 136.927 196.254 136.93 195.961 136.93C195.669 136.93 195.373 136.927 195.08 136.919C186.739 136.745 178.634 134.108 171.783 129.337C164.931 124.566 159.637 117.875 156.565 110.101C153.493 102.328 152.779 93.8183 154.512 85.6398C156.246 77.4614 160.351 69.9778 166.311 64.1274C172.271 58.2769 179.822 54.32 188.018 52.7528C196.213 51.1855 204.687 52.0775 212.379 55.3171C220.07 58.5567 226.636 63.9997 231.253 70.9636C235.87 77.9274 238.334 86.1023 238.334 94.4633V94.4633Z" fill="white"/>
<path d="M197.968 207.585C197.675 207.592 196.254 207.596 195.961 207.596C195.669 207.596 194.247 207.592 193.955 207.585L195.961 95.0796L197.968 207.585Z" fill="#3F3D56"/>
<path d="M352.672 187.321C352.671 188.848 352.119 190.323 351.12 191.475C350.12 192.627 348.739 193.379 347.231 193.593C345.722 193.806 344.188 193.467 342.909 192.637C341.63 191.808 340.693 190.544 340.269 189.077C339.846 187.611 339.965 186.04 340.604 184.654C341.244 183.269 342.361 182.161 343.75 181.534C345.139 180.908 346.707 180.804 348.166 181.244C349.625 181.683 350.877 182.635 351.692 183.925C352.332 184.942 352.672 186.119 352.672 187.321V187.321Z" fill="#27AE60"/>
<path d="M351.692 183.926L345.447 190.183C345.055 189.574 342.868 186.744 342.868 186.744C343.148 186.46 343.447 186.195 343.763 185.952L345.576 188.375L350.96 182.979C351.233 183.271 351.478 183.588 351.692 183.926V183.926Z" fill="white"/>
<path opacity="0.1" d="M419.979 214.48C431.635 214.48 441.084 212.879 441.084 210.903C441.084 208.928 431.635 207.326 419.979 207.326C408.324 207.326 398.875 208.928 398.875 210.903C398.875 212.879 408.324 214.48 419.979 214.48Z" fill="#6C63FF"/>
<path d="M405.809 194.284C405.809 194.284 417.842 193.916 421.475 191.329C425.107 188.742 439.99 185.674 440.893 189.795C441.796 193.916 458.986 210.451 445.393 210.564C431.801 210.677 413.815 208.443 410.189 206.23C406.564 204.018 405.809 194.284 405.809 194.284Z" fill="#A8A8A8"/>
<path opacity="0.2" d="M445.633 209.115C432.041 209.228 414.054 206.994 410.429 204.782C407.678 203.099 406.578 197.055 406.197 194.27H405.795C405.795 194.27 406.556 204.004 410.175 206.217C413.793 208.429 431.836 210.67 445.393 210.599C449.315 210.564 450.67 209.186 450.599 207.065C450.049 208.309 448.553 209.094 445.633 209.115Z" fill="black"/>
</g>
<defs>
<clipPath id="clip0">
<rect x="152" y="52" width="316" height="164" fill="white"/>
</clipPath>
</defs>
</svg>
