<svg width="940" height="528" viewBox="0 0 940 528" fill="none" xmlns="http://www.w3.org/2000/svg">
<rect width="940" height="528" fill="#E9F7EF"/>
<mask id="mask0" mask-type="alpha" maskUnits="userSpaceOnUse" x="0" y="0" width="940" height="528">
<rect width="940" height="528" fill="white"/>
<rect width="940" height="528" stroke="white"/>
</mask>
<g mask="url(#mask0)">
<path d="M825.91 92.9126C839.76 92.1982 854.31 93.9331 861.938 102.081C869.532 110.23 870.239 124.791 870.175 139.302C870.094 153.796 869.26 168.256 861.632 179.518C853.987 190.798 839.565 198.897 823.866 200.161C808.166 201.425 791.222 195.889 781.628 184.607C772.034 173.36 769.789 156.401 771.719 141.357C773.632 126.297 779.738 113.168 789.349 104.988C798.96 96.842 812.077 93.6441 825.91 92.9126Z" fill="white"/>
<path d="M120.91 77.5089C126.736 77.2031 132.856 77.9273 136.062 81.3521C139.254 84.777 139.545 90.9024 139.513 97.0067C139.473 103.104 139.117 109.187 135.904 113.928C132.683 118.676 126.614 122.088 120.009 122.626C113.404 123.164 106.278 120.841 102.247 116.099C98.2149 111.371 97.2769 104.238 98.0947 97.9089C98.9053 91.5725 101.479 86.0475 105.525 82.6026C109.571 79.1721 115.09 77.8219 120.91 77.5089Z" fill="white"/>
</g>
<g clip-path="url(#clip0)">
<path d="M593.515 207.955C593.799 207.955 594.08 207.899 594.342 207.791C594.604 207.682 594.842 207.523 595.043 207.323C595.244 207.122 595.403 206.884 595.511 206.622C595.62 206.36 595.676 206.079 595.676 205.795V182.759C595.679 182.413 595.598 182.07 595.44 181.762C595.282 181.454 595.051 181.189 594.768 180.989C594.485 180.79 594.157 180.662 593.813 180.617C593.47 180.572 593.12 180.612 592.795 180.732V154.683C592.795 153.738 592.609 152.802 592.247 151.928C591.885 151.055 591.354 150.261 590.686 149.593C590.017 148.924 589.223 148.394 588.349 148.032C587.475 147.671 586.539 147.484 585.593 147.484H350.085C349.139 147.484 348.203 147.671 347.329 148.032C346.455 148.394 345.661 148.924 344.992 149.593C344.323 150.261 343.793 151.055 343.431 151.928C343.069 152.802 342.883 153.738 342.883 154.683V470.715C342.883 472.625 343.642 474.456 344.992 475.806C346.343 477.156 348.175 477.914 350.085 477.914H585.593C587.503 477.914 589.335 477.156 590.686 475.806C592.036 474.456 592.795 472.625 592.795 470.715V240.218C593.12 240.338 593.47 240.377 593.813 240.332C594.157 240.287 594.485 240.16 594.768 239.96C595.051 239.761 595.282 239.496 595.44 239.187C595.598 238.879 595.679 238.537 595.676 238.191V215.154C595.679 214.808 595.598 214.466 595.44 214.157C595.282 213.849 595.051 213.584 594.768 213.384C594.485 213.185 594.157 213.057 593.813 213.012C593.47 212.967 593.12 213.007 592.795 213.127V207.823C593.026 207.908 593.269 207.953 593.515 207.955Z" fill="#3F3D56"/>
<path d="M571.189 161.522C572.135 161.522 573.071 161.708 573.945 162.07C574.819 162.432 575.613 162.962 576.282 163.63C576.95 164.299 577.481 165.093 577.843 165.966C578.205 166.839 578.391 167.776 578.391 168.721V456.677C578.391 458.587 577.632 460.418 576.282 461.768C574.931 463.118 573.099 463.876 571.189 463.876H364.489C362.579 463.876 360.747 463.118 359.397 461.768C358.046 460.418 357.287 458.587 357.287 456.677V168.721C357.287 166.812 358.046 164.981 359.397 163.63C360.747 162.28 362.579 161.522 364.489 161.522H571.189Z" fill="white"/>
<path d="M391.266 220.295C393.474 220.295 395.263 218.506 395.263 216.299C395.263 214.093 393.474 212.304 391.266 212.304C389.059 212.304 387.27 214.093 387.27 216.299C387.27 218.506 389.059 220.295 391.266 220.295Z" fill="#E6E6E6"/>
<path d="M411.499 220.295C413.706 220.295 415.496 218.506 415.496 216.299C415.496 214.093 413.706 212.304 411.499 212.304C409.291 212.304 407.502 214.093 407.502 216.299C407.502 218.506 409.291 220.295 411.499 220.295Z" fill="#E6E6E6"/>
<path d="M431.731 220.295C433.938 220.295 435.728 218.506 435.728 216.299C435.728 214.093 433.938 212.304 431.731 212.304C429.524 212.304 427.734 214.093 427.734 216.299C427.734 218.506 429.524 220.295 431.731 220.295Z" fill="#E6E6E6"/>
<path d="M451.963 220.295C454.171 220.295 455.96 218.506 455.96 216.299C455.96 214.093 454.171 212.304 451.963 212.304C449.756 212.304 447.966 214.093 447.966 216.299C447.966 218.506 449.756 220.295 451.963 220.295Z" fill="#E6E6E6"/>
<path d="M472.196 220.295C474.403 220.295 476.193 218.506 476.193 216.299C476.193 214.093 474.403 212.304 472.196 212.304C469.988 212.304 468.199 214.093 468.199 216.299C468.199 218.506 469.988 220.295 472.196 220.295Z" fill="#E6E6E6"/>
<path d="M492.428 220.295C494.635 220.295 496.425 218.506 496.425 216.299C496.425 214.093 494.635 212.304 492.428 212.304C490.22 212.304 488.431 214.093 488.431 216.299C488.431 218.506 490.22 220.295 492.428 220.295Z" fill="#E6E6E6"/>
<path d="M512.66 220.295C514.868 220.295 516.657 218.506 516.657 216.299C516.657 214.093 514.868 212.304 512.66 212.304C510.453 212.304 508.663 214.093 508.663 216.299C508.663 218.506 510.453 220.295 512.66 220.295Z" fill="#E6E6E6"/>
<path d="M532.892 220.295C535.1 220.295 536.889 218.506 536.889 216.299C536.889 214.093 535.1 212.304 532.892 212.304C530.685 212.304 528.896 214.093 528.896 216.299C528.896 218.506 530.685 220.295 532.892 220.295Z" fill="#E6E6E6"/>
<path d="M553.125 220.295C555.332 220.295 557.122 218.506 557.122 216.299C557.122 214.093 555.332 212.304 553.125 212.304C550.917 212.304 549.128 214.093 549.128 216.299C549.128 218.506 550.917 220.295 553.125 220.295Z" fill="#E6E6E6"/>
<path d="M573.357 220.295C575.564 220.295 577.354 218.506 577.354 216.299C577.354 214.093 575.564 212.304 573.357 212.304C571.15 212.304 569.36 214.093 569.36 216.299C569.36 218.506 571.15 220.295 573.357 220.295Z" fill="#E6E6E6"/>
<path d="M391.266 240.772C393.474 240.772 395.263 238.983 395.263 236.776C395.263 234.57 393.474 232.781 391.266 232.781C389.059 232.781 387.27 234.57 387.27 236.776C387.27 238.983 389.059 240.772 391.266 240.772Z" fill="#E6E6E6"/>
<path d="M411.499 240.772C413.706 240.772 415.496 238.983 415.496 236.776C415.496 234.57 413.706 232.781 411.499 232.781C409.291 232.781 407.502 234.57 407.502 236.776C407.502 238.983 409.291 240.772 411.499 240.772Z" fill="#E6E6E6"/>
<path d="M431.731 240.772C433.938 240.772 435.728 238.983 435.728 236.776C435.728 234.57 433.938 232.781 431.731 232.781C429.524 232.781 427.734 234.57 427.734 236.776C427.734 238.983 429.524 240.772 431.731 240.772Z" fill="#E6E6E6"/>
<path d="M451.963 240.772C454.171 240.772 455.96 238.983 455.96 236.776C455.96 234.57 454.171 232.781 451.963 232.781C449.756 232.781 447.966 234.57 447.966 236.776C447.966 238.983 449.756 240.772 451.963 240.772Z" fill="#E6E6E6"/>
<path d="M472.196 240.772C474.403 240.772 476.193 238.983 476.193 236.776C476.193 234.57 474.403 232.781 472.196 232.781C469.988 232.781 468.199 234.57 468.199 236.776C468.199 238.983 469.988 240.772 472.196 240.772Z" fill="#E6E6E6"/>
<path d="M492.428 240.772C494.635 240.772 496.425 238.983 496.425 236.776C496.425 234.57 494.635 232.781 492.428 232.781C490.22 232.781 488.431 234.57 488.431 236.776C488.431 238.983 490.22 240.772 492.428 240.772Z" fill="#E6E6E6"/>
<path d="M512.66 240.772C514.868 240.772 516.657 238.983 516.657 236.776C516.657 234.57 514.868 232.781 512.66 232.781C510.453 232.781 508.663 234.57 508.663 236.776C508.663 238.983 510.453 240.772 512.66 240.772Z" fill="#E6E6E6"/>
<path d="M532.892 240.772C535.1 240.772 536.889 238.983 536.889 236.776C536.889 234.57 535.1 232.781 532.892 232.781C530.685 232.781 528.896 234.57 528.896 236.776C528.896 238.983 530.685 240.772 532.892 240.772Z" fill="#E6E6E6"/>
<path d="M553.125 240.772C555.332 240.772 557.122 238.983 557.122 236.776C557.122 234.57 555.332 232.781 553.125 232.781C550.917 232.781 549.128 234.57 549.128 236.776C549.128 238.983 550.917 240.772 553.125 240.772Z" fill="#E6E6E6"/>
<path d="M573.357 240.772C575.564 240.772 577.354 238.983 577.354 236.776C577.354 234.57 575.564 232.781 573.357 232.781C571.15 232.781 569.36 234.57 569.36 236.776C569.36 238.983 571.15 240.772 573.357 240.772Z" fill="#E6E6E6"/>
<path d="M391.266 261.249C393.474 261.249 395.263 259.46 395.263 257.253C395.263 255.047 393.474 253.258 391.266 253.258C389.059 253.258 387.27 255.047 387.27 257.253C387.27 259.46 389.059 261.249 391.266 261.249Z" fill="#E6E6E6"/>
<path d="M411.499 261.249C413.706 261.249 415.496 259.46 415.496 257.253C415.496 255.047 413.706 253.258 411.499 253.258C409.291 253.258 407.502 255.047 407.502 257.253C407.502 259.46 409.291 261.249 411.499 261.249Z" fill="#E6E6E6"/>
<path d="M431.731 261.249C433.938 261.249 435.728 259.46 435.728 257.253C435.728 255.047 433.938 253.258 431.731 253.258C429.524 253.258 427.734 255.047 427.734 257.253C427.734 259.46 429.524 261.249 431.731 261.249Z" fill="#E6E6E6"/>
<path d="M451.963 261.249C454.171 261.249 455.96 259.46 455.96 257.253C455.96 255.047 454.171 253.258 451.963 253.258C449.756 253.258 447.966 255.047 447.966 257.253C447.966 259.46 449.756 261.249 451.963 261.249Z" fill="#E6E6E6"/>
<path d="M472.196 261.249C474.403 261.249 476.193 259.46 476.193 257.253C476.193 255.047 474.403 253.258 472.196 253.258C469.988 253.258 468.199 255.047 468.199 257.253C468.199 259.46 469.988 261.249 472.196 261.249Z" fill="#E6E6E6"/>
<path d="M492.428 261.249C494.635 261.249 496.425 259.46 496.425 257.253C496.425 255.047 494.635 253.258 492.428 253.258C490.22 253.258 488.431 255.047 488.431 257.253C488.431 259.46 490.22 261.249 492.428 261.249Z" fill="#E6E6E6"/>
<path d="M512.66 261.249C514.868 261.249 516.657 259.46 516.657 257.253C516.657 255.047 514.868 253.258 512.66 253.258C510.453 253.258 508.663 255.047 508.663 257.253C508.663 259.46 510.453 261.249 512.66 261.249Z" fill="#E6E6E6"/>
<path d="M532.892 261.249C535.1 261.249 536.889 259.46 536.889 257.253C536.889 255.047 535.1 253.258 532.892 253.258C530.685 253.258 528.896 255.047 528.896 257.253C528.896 259.46 530.685 261.249 532.892 261.249Z" fill="#E6E6E6"/>
<path d="M553.125 261.249C555.332 261.249 557.122 259.46 557.122 257.253C557.122 255.047 555.332 253.258 553.125 253.258C550.917 253.258 549.128 255.047 549.128 257.253C549.128 259.46 550.917 261.249 553.125 261.249Z" fill="#E6E6E6"/>
<path d="M573.357 261.249C575.564 261.249 577.354 259.46 577.354 257.253C577.354 255.047 575.564 253.258 573.357 253.258C571.15 253.258 569.36 255.047 569.36 257.253C569.36 259.46 571.15 261.249 573.357 261.249Z" fill="#E6E6E6"/>
<path d="M391.266 281.726C393.474 281.726 395.263 279.937 395.263 277.73C395.263 275.524 393.474 273.735 391.266 273.735C389.059 273.735 387.27 275.524 387.27 277.73C387.27 279.937 389.059 281.726 391.266 281.726Z" fill="#E6E6E6"/>
<path d="M411.499 281.726C413.706 281.726 415.496 279.937 415.496 277.73C415.496 275.524 413.706 273.735 411.499 273.735C409.291 273.735 407.502 275.524 407.502 277.73C407.502 279.937 409.291 281.726 411.499 281.726Z" fill="#E6E6E6"/>
<path d="M431.731 281.726C433.938 281.726 435.728 279.937 435.728 277.73C435.728 275.524 433.938 273.735 431.731 273.735C429.524 273.735 427.734 275.524 427.734 277.73C427.734 279.937 429.524 281.726 431.731 281.726Z" fill="#E6E6E6"/>
<path d="M451.963 281.726C454.171 281.726 455.96 279.937 455.96 277.73C455.96 275.524 454.171 273.735 451.963 273.735C449.756 273.735 447.966 275.524 447.966 277.73C447.966 279.937 449.756 281.726 451.963 281.726Z" fill="#E6E6E6"/>
<path d="M472.196 281.726C474.403 281.726 476.193 279.937 476.193 277.73C476.193 275.524 474.403 273.735 472.196 273.735C469.988 273.735 468.199 275.524 468.199 277.73C468.199 279.937 469.988 281.726 472.196 281.726Z" fill="#E6E6E6"/>
<path d="M492.428 281.726C494.635 281.726 496.425 279.937 496.425 277.73C496.425 275.524 494.635 273.735 492.428 273.735C490.22 273.735 488.431 275.524 488.431 277.73C488.431 279.937 490.22 281.726 492.428 281.726Z" fill="#E6E6E6"/>
<path d="M512.66 281.726C514.868 281.726 516.657 279.937 516.657 277.73C516.657 275.524 514.868 273.735 512.66 273.735C510.453 273.735 508.663 275.524 508.663 277.73C508.663 279.937 510.453 281.726 512.66 281.726Z" fill="#E6E6E6"/>
<path d="M532.892 281.726C535.1 281.726 536.889 279.937 536.889 277.73C536.889 275.524 535.1 273.735 532.892 273.735C530.685 273.735 528.896 275.524 528.896 277.73C528.896 279.937 530.685 281.726 532.892 281.726Z" fill="#E6E6E6"/>
<path d="M553.125 281.726C555.332 281.726 557.122 279.937 557.122 277.73C557.122 275.524 555.332 273.735 553.125 273.735C550.917 273.735 549.128 275.524 549.128 277.73C549.128 279.937 550.917 281.726 553.125 281.726Z" fill="#E6E6E6"/>
<path d="M573.357 281.726C575.564 281.726 577.354 279.937 577.354 277.73C577.354 275.524 575.564 273.735 573.357 273.735C571.15 273.735 569.36 275.524 569.36 277.73C569.36 279.937 571.15 281.726 573.357 281.726Z" fill="#E6E6E6"/>
<path d="M391.266 302.203C393.474 302.203 395.263 300.414 395.263 298.208C395.263 296.002 393.474 294.213 391.266 294.213C389.059 294.213 387.27 296.002 387.27 298.208C387.27 300.414 389.059 302.203 391.266 302.203Z" fill="#E6E6E6"/>
<path d="M411.499 302.203C413.706 302.203 415.496 300.414 415.496 298.208C415.496 296.002 413.706 294.213 411.499 294.213C409.291 294.213 407.502 296.002 407.502 298.208C407.502 300.414 409.291 302.203 411.499 302.203Z" fill="#E6E6E6"/>
<path d="M431.731 302.203C433.938 302.203 435.728 300.414 435.728 298.208C435.728 296.002 433.938 294.213 431.731 294.213C429.524 294.213 427.734 296.002 427.734 298.208C427.734 300.414 429.524 302.203 431.731 302.203Z" fill="#E6E6E6"/>
<path d="M451.963 302.203C454.171 302.203 455.96 300.414 455.96 298.208C455.96 296.002 454.171 294.213 451.963 294.213C449.756 294.213 447.966 296.002 447.966 298.208C447.966 300.414 449.756 302.203 451.963 302.203Z" fill="#E6E6E6"/>
<path d="M472.196 302.203C474.403 302.203 476.193 300.414 476.193 298.208C476.193 296.002 474.403 294.213 472.196 294.213C469.988 294.213 468.199 296.002 468.199 298.208C468.199 300.414 469.988 302.203 472.196 302.203Z" fill="#E6E6E6"/>
<path d="M492.428 302.203C494.635 302.203 496.425 300.414 496.425 298.208C496.425 296.002 494.635 294.213 492.428 294.213C490.22 294.213 488.431 296.002 488.431 298.208C488.431 300.414 490.22 302.203 492.428 302.203Z" fill="#E6E6E6"/>
<path d="M512.66 302.203C514.868 302.203 516.657 300.414 516.657 298.208C516.657 296.002 514.868 294.213 512.66 294.213C510.453 294.213 508.663 296.002 508.663 298.208C508.663 300.414 510.453 302.203 512.66 302.203Z" fill="#E6E6E6"/>
<path d="M532.892 302.203C535.1 302.203 536.889 300.414 536.889 298.208C536.889 296.002 535.1 294.213 532.892 294.213C530.685 294.213 528.896 296.002 528.896 298.208C528.896 300.414 530.685 302.203 532.892 302.203Z" fill="#E6E6E6"/>
<path d="M553.125 302.203C555.332 302.203 557.122 300.414 557.122 298.208C557.122 296.002 555.332 294.213 553.125 294.213C550.917 294.213 549.128 296.002 549.128 298.208C549.128 300.414 550.917 302.203 553.125 302.203Z" fill="#E6E6E6"/>
<path d="M573.357 302.203C575.564 302.203 577.354 300.414 577.354 298.208C577.354 296.002 575.564 294.213 573.357 294.213C571.15 294.213 569.36 296.002 569.36 298.208C569.36 300.414 571.15 302.203 573.357 302.203Z" fill="#E6E6E6"/>
<path d="M391.266 322.68C393.474 322.68 395.263 320.892 395.263 318.685C395.263 316.479 393.474 314.69 391.266 314.69C389.059 314.69 387.27 316.479 387.27 318.685C387.27 320.892 389.059 322.68 391.266 322.68Z" fill="#E6E6E6"/>
<path d="M411.499 322.68C413.706 322.68 415.496 320.892 415.496 318.685C415.496 316.479 413.706 314.69 411.499 314.69C409.291 314.69 407.502 316.479 407.502 318.685C407.502 320.892 409.291 322.68 411.499 322.68Z" fill="#E6E6E6"/>
<path d="M431.731 322.68C433.938 322.68 435.728 320.892 435.728 318.685C435.728 316.479 433.938 314.69 431.731 314.69C429.524 314.69 427.734 316.479 427.734 318.685C427.734 320.892 429.524 322.68 431.731 322.68Z" fill="#E6E6E6"/>
<path d="M451.963 322.68C454.171 322.68 455.96 320.892 455.96 318.685C455.96 316.479 454.171 314.69 451.963 314.69C449.756 314.69 447.966 316.479 447.966 318.685C447.966 320.892 449.756 322.68 451.963 322.68Z" fill="#E6E6E6"/>
<path d="M472.196 322.68C474.403 322.68 476.193 320.892 476.193 318.685C476.193 316.479 474.403 314.69 472.196 314.69C469.988 314.69 468.199 316.479 468.199 318.685C468.199 320.892 469.988 322.68 472.196 322.68Z" fill="#E6E6E6"/>
<path d="M492.428 322.68C494.635 322.68 496.425 320.892 496.425 318.685C496.425 316.479 494.635 314.69 492.428 314.69C490.22 314.69 488.431 316.479 488.431 318.685C488.431 320.892 490.22 322.68 492.428 322.68Z" fill="#E6E6E6"/>
<path d="M512.66 322.68C514.868 322.68 516.657 320.892 516.657 318.685C516.657 316.479 514.868 314.69 512.66 314.69C510.453 314.69 508.663 316.479 508.663 318.685C508.663 320.892 510.453 322.68 512.66 322.68Z" fill="#E6E6E6"/>
<path d="M532.892 322.68C535.1 322.68 536.889 320.892 536.889 318.685C536.889 316.479 535.1 314.69 532.892 314.69C530.685 314.69 528.896 316.479 528.896 318.685C528.896 320.892 530.685 322.68 532.892 322.68Z" fill="#E6E6E6"/>
<path d="M553.125 322.68C555.332 322.68 557.122 320.892 557.122 318.685C557.122 316.479 555.332 314.69 553.125 314.69C550.917 314.69 549.128 316.479 549.128 318.685C549.128 320.892 550.917 322.68 553.125 322.68Z" fill="#E6E6E6"/>
<path d="M573.357 322.68C575.564 322.68 577.354 320.892 577.354 318.685C577.354 316.479 575.564 314.69 573.357 314.69C571.15 314.69 569.36 316.479 569.36 318.685C569.36 320.892 571.15 322.68 573.357 322.68Z" fill="#E6E6E6"/>
<path d="M391.266 343.158C393.474 343.158 395.263 341.369 395.263 339.163C395.263 336.956 393.474 335.167 391.266 335.167C389.059 335.167 387.27 336.956 387.27 339.163C387.27 341.369 389.059 343.158 391.266 343.158Z" fill="#E6E6E6"/>
<path d="M411.499 343.158C413.706 343.158 415.496 341.369 415.496 339.163C415.496 336.956 413.706 335.167 411.499 335.167C409.291 335.167 407.502 336.956 407.502 339.163C407.502 341.369 409.291 343.158 411.499 343.158Z" fill="#E6E6E6"/>
<path d="M431.731 343.158C433.938 343.158 435.728 341.369 435.728 339.163C435.728 336.956 433.938 335.167 431.731 335.167C429.524 335.167 427.734 336.956 427.734 339.163C427.734 341.369 429.524 343.158 431.731 343.158Z" fill="#E6E6E6"/>
<path d="M451.963 343.158C454.171 343.158 455.96 341.369 455.96 339.163C455.96 336.956 454.171 335.167 451.963 335.167C449.756 335.167 447.966 336.956 447.966 339.163C447.966 341.369 449.756 343.158 451.963 343.158Z" fill="#E6E6E6"/>
<path d="M472.196 343.158C474.403 343.158 476.193 341.369 476.193 339.163C476.193 336.956 474.403 335.167 472.196 335.167C469.988 335.167 468.199 336.956 468.199 339.163C468.199 341.369 469.988 343.158 472.196 343.158Z" fill="#E6E6E6"/>
<path d="M492.428 343.158C494.635 343.158 496.425 341.369 496.425 339.163C496.425 336.956 494.635 335.167 492.428 335.167C490.22 335.167 488.431 336.956 488.431 339.163C488.431 341.369 490.22 343.158 492.428 343.158Z" fill="#E6E6E6"/>
<path d="M512.66 343.158C514.868 343.158 516.657 341.369 516.657 339.163C516.657 336.956 514.868 335.167 512.66 335.167C510.453 335.167 508.663 336.956 508.663 339.163C508.663 341.369 510.453 343.158 512.66 343.158Z" fill="#E6E6E6"/>
<path d="M532.892 343.158C535.1 343.158 536.889 341.369 536.889 339.163C536.889 336.956 535.1 335.167 532.892 335.167C530.685 335.167 528.896 336.956 528.896 339.163C528.896 341.369 530.685 343.158 532.892 343.158Z" fill="#E6E6E6"/>
<path d="M553.125 343.158C555.332 343.158 557.122 341.369 557.122 339.163C557.122 336.956 555.332 335.167 553.125 335.167C550.917 335.167 549.128 336.956 549.128 339.163C549.128 341.369 550.917 343.158 553.125 343.158Z" fill="#E6E6E6"/>
<path d="M573.357 343.158C575.564 343.158 577.354 341.369 577.354 339.163C577.354 336.956 575.564 335.167 573.357 335.167C571.15 335.167 569.36 336.956 569.36 339.163C569.36 341.369 571.15 343.158 573.357 343.158Z" fill="#E6E6E6"/>
<path d="M391.266 363.634C393.474 363.634 395.263 361.846 395.263 359.639C395.263 357.433 393.474 355.644 391.266 355.644C389.059 355.644 387.27 357.433 387.27 359.639C387.27 361.846 389.059 363.634 391.266 363.634Z" fill="#E6E6E6"/>
<path d="M411.499 363.634C413.706 363.634 415.496 361.846 415.496 359.639C415.496 357.433 413.706 355.644 411.499 355.644C409.291 355.644 407.502 357.433 407.502 359.639C407.502 361.846 409.291 363.634 411.499 363.634Z" fill="#E6E6E6"/>
<path d="M431.731 363.634C433.938 363.634 435.728 361.846 435.728 359.639C435.728 357.433 433.938 355.644 431.731 355.644C429.524 355.644 427.734 357.433 427.734 359.639C427.734 361.846 429.524 363.634 431.731 363.634Z" fill="#E6E6E6"/>
<path d="M451.963 363.634C454.171 363.634 455.96 361.846 455.96 359.639C455.96 357.433 454.171 355.644 451.963 355.644C449.756 355.644 447.966 357.433 447.966 359.639C447.966 361.846 449.756 363.634 451.963 363.634Z" fill="#E6E6E6"/>
<path d="M472.196 363.634C474.403 363.634 476.193 361.846 476.193 359.639C476.193 357.433 474.403 355.644 472.196 355.644C469.988 355.644 468.199 357.433 468.199 359.639C468.199 361.846 469.988 363.634 472.196 363.634Z" fill="#E6E6E6"/>
<path d="M492.428 363.634C494.635 363.634 496.425 361.846 496.425 359.639C496.425 357.433 494.635 355.644 492.428 355.644C490.22 355.644 488.431 357.433 488.431 359.639C488.431 361.846 490.22 363.634 492.428 363.634Z" fill="#E6E6E6"/>
<path d="M512.66 363.634C514.868 363.634 516.657 361.846 516.657 359.639C516.657 357.433 514.868 355.644 512.66 355.644C510.453 355.644 508.663 357.433 508.663 359.639C508.663 361.846 510.453 363.634 512.66 363.634Z" fill="#E6E6E6"/>
<path d="M532.892 363.634C535.1 363.634 536.889 361.846 536.889 359.639C536.889 357.433 535.1 355.644 532.892 355.644C530.685 355.644 528.896 357.433 528.896 359.639C528.896 361.846 530.685 363.634 532.892 363.634Z" fill="#E6E6E6"/>
<path d="M553.125 363.634C555.332 363.634 557.122 361.846 557.122 359.639C557.122 357.433 555.332 355.644 553.125 355.644C550.917 355.644 549.128 357.433 549.128 359.639C549.128 361.846 550.917 363.634 553.125 363.634Z" fill="#E6E6E6"/>
<path d="M573.357 363.634C575.564 363.634 577.354 361.846 577.354 359.639C577.354 357.433 575.564 355.644 573.357 355.644C571.15 355.644 569.36 357.433 569.36 359.639C569.36 361.846 571.15 363.634 573.357 363.634Z" fill="#E6E6E6"/>
<path d="M391.266 384.112C393.474 384.112 395.263 382.323 395.263 380.117C395.263 377.91 393.474 376.122 391.266 376.122C389.059 376.122 387.27 377.91 387.27 380.117C387.27 382.323 389.059 384.112 391.266 384.112Z" fill="#E6E6E6"/>
<path d="M411.499 384.112C413.706 384.112 415.496 382.323 415.496 380.117C415.496 377.91 413.706 376.122 411.499 376.122C409.291 376.122 407.502 377.91 407.502 380.117C407.502 382.323 409.291 384.112 411.499 384.112Z" fill="#E6E6E6"/>
<path d="M431.731 384.112C433.938 384.112 435.728 382.323 435.728 380.117C435.728 377.91 433.938 376.122 431.731 376.122C429.524 376.122 427.734 377.91 427.734 380.117C427.734 382.323 429.524 384.112 431.731 384.112Z" fill="#E6E6E6"/>
<path d="M451.963 384.112C454.171 384.112 455.96 382.323 455.96 380.117C455.96 377.91 454.171 376.122 451.963 376.122C449.756 376.122 447.966 377.91 447.966 380.117C447.966 382.323 449.756 384.112 451.963 384.112Z" fill="#E6E6E6"/>
<path d="M472.196 384.112C474.403 384.112 476.193 382.323 476.193 380.117C476.193 377.91 474.403 376.122 472.196 376.122C469.988 376.122 468.199 377.91 468.199 380.117C468.199 382.323 469.988 384.112 472.196 384.112Z" fill="#E6E6E6"/>
<path d="M492.428 384.112C494.635 384.112 496.425 382.323 496.425 380.117C496.425 377.91 494.635 376.122 492.428 376.122C490.22 376.122 488.431 377.91 488.431 380.117C488.431 382.323 490.22 384.112 492.428 384.112Z" fill="#E6E6E6"/>
<path d="M512.66 384.112C514.868 384.112 516.657 382.323 516.657 380.117C516.657 377.91 514.868 376.122 512.66 376.122C510.453 376.122 508.663 377.91 508.663 380.117C508.663 382.323 510.453 384.112 512.66 384.112Z" fill="#E6E6E6"/>
<path d="M532.892 384.112C535.1 384.112 536.889 382.323 536.889 380.117C536.889 377.91 535.1 376.122 532.892 376.122C530.685 376.122 528.896 377.91 528.896 380.117C528.896 382.323 530.685 384.112 532.892 384.112Z" fill="#E6E6E6"/>
<path d="M553.125 384.112C555.332 384.112 557.122 382.323 557.122 380.117C557.122 377.91 555.332 376.122 553.125 376.122C550.917 376.122 549.128 377.91 549.128 380.117C549.128 382.323 550.917 384.112 553.125 384.112Z" fill="#E6E6E6"/>
<path d="M573.357 384.112C575.564 384.112 577.354 382.323 577.354 380.117C577.354 377.91 575.564 376.122 573.357 376.122C571.15 376.122 569.36 377.91 569.36 380.117C569.36 382.323 571.15 384.112 573.357 384.112Z" fill="#E6E6E6"/>
<path d="M391.266 404.589C393.474 404.589 395.263 402.801 395.263 400.594C395.263 398.388 393.474 396.599 391.266 396.599C389.059 396.599 387.27 398.388 387.27 400.594C387.27 402.801 389.059 404.589 391.266 404.589Z" fill="#E6E6E6"/>
<path d="M411.499 404.589C413.706 404.589 415.496 402.801 415.496 400.594C415.496 398.388 413.706 396.599 411.499 396.599C409.291 396.599 407.502 398.388 407.502 400.594C407.502 402.801 409.291 404.589 411.499 404.589Z" fill="#E6E6E6"/>
<path d="M431.731 404.589C433.938 404.589 435.728 402.801 435.728 400.594C435.728 398.388 433.938 396.599 431.731 396.599C429.524 396.599 427.734 398.388 427.734 400.594C427.734 402.801 429.524 404.589 431.731 404.589Z" fill="#E6E6E6"/>
<path d="M451.963 404.589C454.171 404.589 455.96 402.801 455.96 400.594C455.96 398.388 454.171 396.599 451.963 396.599C449.756 396.599 447.966 398.388 447.966 400.594C447.966 402.801 449.756 404.589 451.963 404.589Z" fill="#E6E6E6"/>
<path d="M472.196 404.589C474.403 404.589 476.193 402.801 476.193 400.594C476.193 398.388 474.403 396.599 472.196 396.599C469.988 396.599 468.199 398.388 468.199 400.594C468.199 402.801 469.988 404.589 472.196 404.589Z" fill="#E6E6E6"/>
<path d="M492.428 404.589C494.635 404.589 496.425 402.801 496.425 400.594C496.425 398.388 494.635 396.599 492.428 396.599C490.22 396.599 488.431 398.388 488.431 400.594C488.431 402.801 490.22 404.589 492.428 404.589Z" fill="#E6E6E6"/>
<path d="M512.66 404.589C514.868 404.589 516.657 402.801 516.657 400.594C516.657 398.388 514.868 396.599 512.66 396.599C510.453 396.599 508.663 398.388 508.663 400.594C508.663 402.801 510.453 404.589 512.66 404.589Z" fill="#E6E6E6"/>
<path d="M532.892 404.589C535.1 404.589 536.889 402.801 536.889 400.594C536.889 398.388 535.1 396.599 532.892 396.599C530.685 396.599 528.896 398.388 528.896 400.594C528.896 402.801 530.685 404.589 532.892 404.589Z" fill="#E6E6E6"/>
<path d="M553.125 404.589C555.332 404.589 557.122 402.801 557.122 400.594C557.122 398.388 555.332 396.599 553.125 396.599C550.917 396.599 549.128 398.388 549.128 400.594C549.128 402.801 550.917 404.589 553.125 404.589Z" fill="#E6E6E6"/>
<path d="M573.357 404.589C575.564 404.589 577.354 402.801 577.354 400.594C577.354 398.388 575.564 396.599 573.357 396.599C571.15 396.599 569.36 398.388 569.36 400.594C569.36 402.801 571.15 404.589 573.357 404.589Z" fill="#E6E6E6"/>
<path d="M186.728 405.226L175.768 395.787C176.192 388.956 177.001 382.155 178.191 375.415L184.223 377.922L178.611 373.09C180.166 364.77 181.722 359.359 181.722 359.359C181.722 359.359 203.839 378.747 216.295 402.489L211.006 420.276L219.18 408.485C220.424 411.312 221.489 414.213 222.369 417.173C231.136 447.046 228.483 474.125 216.443 477.656C204.403 481.187 187.534 459.832 178.766 429.96C176.048 420.699 175.301 410.395 175.561 400.585L186.728 405.226Z" fill="#B3B6BA"/>
<path d="M158.004 428.673L143.74 426.257C140.571 420.19 137.746 413.95 135.28 407.565L141.74 406.594L134.437 405.357C131.466 397.432 130 391.996 130 391.996C130 391.996 158.959 397.166 181.899 411.054L186.57 429.014L187.47 414.697C189.996 416.473 192.409 418.407 194.692 420.487C217.646 441.529 229.378 466.081 220.897 475.324C212.416 484.568 186.933 475.003 163.979 453.96C156.863 447.437 150.895 439.003 146.045 430.47L158.004 428.673Z" fill="#CCCFD1"/>
<path d="M810 477.696H130V479.411H810V477.696Z" fill="#3F3D56"/>
<path d="M467.839 157.562C469.43 157.562 470.72 156.273 470.72 154.683C470.72 153.092 469.43 151.803 467.839 151.803C466.248 151.803 464.958 153.092 464.958 154.683C464.958 156.273 466.248 157.562 467.839 157.562Z" fill="white"/>
<path d="M548.863 166.921H387.536C385.149 166.921 383.215 168.855 383.215 171.24V175.56C383.215 177.945 385.149 179.879 387.536 179.879H548.863C551.249 179.879 553.184 177.945 553.184 175.56V171.24C553.184 168.855 551.249 166.921 548.863 166.921Z" fill="#E6E6E6"/>
<path d="M489.085 174.12H446.593C446.498 174.12 446.404 174.102 446.316 174.066C446.229 174.03 446.149 173.977 446.081 173.91C446.014 173.843 445.961 173.764 445.925 173.676C445.888 173.589 445.869 173.495 445.869 173.4C445.869 173.305 445.888 173.211 445.925 173.124C445.961 173.036 446.014 172.957 446.081 172.89C446.149 172.823 446.229 172.77 446.316 172.734C446.404 172.698 446.498 172.68 446.593 172.68H489.085C489.18 172.68 489.274 172.698 489.362 172.734C489.45 172.77 489.529 172.823 489.597 172.89C489.664 172.957 489.717 173.036 489.754 173.124C489.79 173.211 489.809 173.305 489.809 173.4C489.809 173.495 489.79 173.589 489.754 173.676C489.717 173.764 489.664 173.843 489.597 173.91C489.529 173.977 489.45 174.03 489.362 174.066C489.274 174.102 489.18 174.12 489.085 174.12Z" fill="white"/>
<path d="M553.482 324.528L553.482 214.06C553.482 213.142 551.179 212.397 548.337 212.397L400.77 212.397C397.928 212.397 395.625 213.142 395.625 214.06L395.625 324.528C395.625 325.446 397.928 326.191 400.77 326.191L548.337 326.191C551.179 326.191 553.482 325.446 553.482 324.528Z" fill="#1F7042"/>
<path d="M466.964 312.947C466.964 313.24 466.644 313.521 466.075 313.729C465.506 313.936 464.734 314.052 463.928 314.052L457.857 314.052C457.052 314.052 456.28 313.936 455.71 313.729C455.141 313.521 454.821 313.24 454.821 312.947L454.821 225.64C454.821 225.347 455.141 225.066 455.71 224.859C456.28 224.652 457.052 224.535 457.857 224.535L463.928 224.535C464.734 224.535 465.506 224.652 466.075 224.859C466.644 225.066 466.964 225.347 466.964 225.64L466.964 312.947Z" fill="white"/>
<path d="M497.321 312.947C497.321 313.24 497.001 313.521 496.432 313.729C495.863 313.936 495.091 314.052 494.286 314.052L488.214 314.052C487.409 314.052 486.637 313.936 486.068 313.729C485.498 313.521 485.178 313.24 485.178 312.947L485.178 225.64C485.178 225.347 485.498 225.066 486.068 224.859C486.637 224.652 487.409 224.535 488.214 224.535L494.286 224.535C495.091 224.535 495.863 224.652 496.432 224.859C497.001 225.066 497.321 225.347 497.321 225.64L497.321 312.947Z" fill="white"/>
<path d="M527.678 312.947C527.678 313.24 527.359 313.521 526.789 313.729C526.22 313.936 525.448 314.052 524.643 314.052L518.571 314.052C517.766 314.052 516.994 313.936 516.425 313.729C515.855 313.521 515.536 313.24 515.536 312.947L515.536 225.64C515.536 225.347 515.855 225.066 516.425 224.859C516.994 224.652 517.766 224.535 518.571 224.535L524.643 224.535C525.448 224.535 526.22 224.652 526.789 224.859C527.359 225.066 527.678 225.347 527.678 225.64L527.678 312.947Z" fill="white"/>
<path d="M436.607 312.947C436.607 313.24 436.287 313.521 435.718 313.729C435.148 313.936 434.376 314.052 433.571 314.052L427.5 314.052C426.695 314.052 425.923 313.936 425.353 313.729C424.784 313.521 424.464 313.24 424.464 312.947L424.464 225.64C424.464 225.347 424.784 225.066 425.353 224.859C425.923 224.652 426.695 224.535 427.5 224.535L433.571 224.535C434.376 224.535 435.148 224.652 435.718 224.859C436.287 225.066 436.607 225.347 436.607 225.64L436.607 312.947Z" fill="white"/>
<path d="M315.781 235.141C315.784 258.986 306.437 281.882 289.745 298.917C273.053 315.953 250.347 325.771 226.497 326.266C225.867 326.282 225.23 326.29 224.6 326.29C223.971 326.29 223.333 326.282 222.703 326.266C204.754 325.893 187.314 320.231 172.57 309.992C157.826 299.752 146.434 285.39 139.823 268.705C133.212 252.02 131.675 233.756 135.406 216.203C139.137 198.649 147.969 182.586 160.795 170.029C173.621 157.472 189.871 148.98 207.506 145.616C225.141 142.252 243.377 144.166 259.928 151.12C276.48 158.073 290.609 169.755 300.545 184.702C310.48 199.649 315.781 217.195 315.781 235.141Z" fill="white"/>
<path d="M228.919 477.938C228.289 477.954 225.23 477.962 224.6 477.962C223.971 477.962 220.912 477.954 220.282 477.938L224.6 236.464L228.919 477.938Z" fill="#3F3D56"/>
<path d="M561.826 434.446C561.823 437.723 560.637 440.889 558.486 443.361C556.335 445.834 553.363 447.448 550.117 447.906C546.871 448.365 543.569 447.637 540.817 445.856C538.064 444.076 536.047 441.363 535.136 438.215C534.225 435.067 534.481 431.696 535.857 428.722C537.233 425.748 539.637 423.37 542.626 422.025C545.616 420.68 548.99 420.459 552.13 421.402C555.269 422.344 557.963 424.388 559.716 427.157C561.095 429.338 561.827 431.866 561.826 434.446Z" fill="#27AE60"/>
<path d="M559.717 427.157L546.279 440.586C545.434 439.279 540.729 433.205 540.729 433.205C541.332 432.596 541.975 432.028 542.655 431.506L546.557 436.706L558.143 425.125C558.73 425.751 559.257 426.431 559.717 427.157Z" fill="white"/>
<path opacity="0.1" d="M706.664 492.737C731.746 492.737 752.079 489.3 752.079 485.06C752.079 480.82 731.746 477.382 706.664 477.382C681.583 477.382 661.25 480.82 661.25 485.06C661.25 489.3 681.583 492.737 706.664 492.737Z" fill="#6C63FF"/>
<path d="M676.171 449.389C676.171 449.389 702.065 448.6 709.882 443.047C717.699 437.494 749.726 430.909 751.669 439.755C753.612 448.6 790.602 484.089 761.353 484.331C732.104 484.574 693.398 479.78 685.597 475.031C677.795 470.282 676.171 449.389 676.171 449.389Z" fill="#A8A8A8"/>
<path opacity="0.2" d="M761.869 481.221C732.62 481.464 693.914 476.67 686.112 471.921C680.193 468.31 677.825 455.337 677.005 449.359H676.14C676.14 449.359 677.779 470.252 685.566 475.001C693.353 479.75 732.179 484.559 761.353 484.408C769.792 484.332 772.706 481.373 772.555 476.821C771.371 479.492 768.153 481.176 761.869 481.221Z" fill="black"/>
</g>
<defs>
<clipPath id="clip0">
<rect x="130" y="144" width="680" height="352" fill="white"/>
</clipPath>
</defs>
</svg>
