<svg width="145" height="35" viewBox="0 0 145 35" fill="none" xmlns="http://www.w3.org/2000/svg">
<g clip-path="url(#clip0)">
<path d="M29.1074 12.4157L29.1 5.10241L22.0219 5.11179L17.0793 0L12.1459 5.04616L4.99442 5.05366L5.00358 12.3626L0 17.4813L5.08351 22.5906L5.09023 29.8994L12.1684 29.8919L17.111 35L22.042 29.8813L29.1934 29.8757L29.1861 22.6412L34.1897 17.5225L29.1074 12.4157ZM4.36471 19.0127L3.21815 17.8444C3.17558 17.8014 3.14175 17.7503 3.11867 17.6939C3.09559 17.6374 3.0837 17.5768 3.0837 17.5156C3.0837 17.4544 3.09559 17.3939 3.11867 17.3374C3.14175 17.281 3.17558 17.2298 3.21815 17.1868L4.43365 15.9429C4.46809 15.9105 4.51188 15.8903 4.55846 15.8854C4.60504 15.8805 4.65191 15.8912 4.69204 15.9159C4.73218 15.9407 4.76342 15.978 4.78108 16.0225C4.79874 16.0668 4.80187 16.1159 4.79001 16.1624L4.86262 18.7939C4.86262 19.0871 4.57705 19.1589 4.36531 19.0127H4.36471ZM24.8775 7.22952H26.5251C26.7392 7.22952 27.0224 7.37328 26.9522 7.66706V9.41727C26.9522 9.63541 26.6678 9.71162 26.5934 9.56226L24.7317 7.66456C24.6898 7.63501 24.6584 7.59227 24.6422 7.54281C24.6261 7.49334 24.6262 7.43985 24.6423 7.39042C24.6585 7.34098 24.69 7.29829 24.732 7.26881C24.774 7.23933 24.8243 7.22466 24.8751 7.22702L24.8775 7.22952ZM15.7173 4.53298L16.8632 3.36285C17.0775 3.21721 17.3624 3.14471 17.504 3.36285L18.7195 4.53111C18.7524 4.57064 18.7732 4.61918 18.7794 4.67072C18.7857 4.72226 18.777 4.77452 18.7545 4.82108C18.7321 4.86763 18.6968 4.90643 18.653 4.93266C18.6093 4.95888 18.559 4.9714 18.5084 4.96865L15.9352 4.97241C15.8833 4.97864 15.8308 4.96844 15.7848 4.94322C15.7387 4.91798 15.7013 4.87892 15.6776 4.83127C15.6539 4.78362 15.645 4.72968 15.6521 4.67669C15.6592 4.6237 15.6819 4.57419 15.7173 4.53485V4.53298ZM6.99891 9.36539V7.75834C7.06969 7.46392 7.21491 7.2464 7.50048 7.2464L9.14372 7.24265C9.19576 7.23599 9.24841 7.24594 9.29467 7.27113C9.34102 7.29632 9.37857 7.33553 9.40221 7.38339C9.42595 7.43126 9.43467 7.48546 9.42716 7.53858C9.41965 7.5917 9.39635 7.64117 9.36035 7.6802L7.50048 9.57976C7.45653 9.61354 7.4047 9.63498 7.35015 9.64189C7.29561 9.64871 7.24026 9.64084 7.18963 9.61896C7.139 9.59709 7.09485 9.56191 7.0616 9.51711C7.02834 9.47231 7.00715 9.41938 7.00013 9.36346L6.99891 9.36539ZM9.30667 27.8498H7.65913C7.60244 27.8521 7.5459 27.8424 7.49306 27.8212C7.44023 27.8001 7.39226 27.7679 7.35214 27.7268C7.31202 27.6857 7.28064 27.6365 7.25996 27.5825C7.23929 27.5283 7.22976 27.4704 7.232 27.4123L7.15938 25.7296C7.15363 25.6766 7.16387 25.6231 7.18875 25.5762C7.21362 25.5294 7.25192 25.4915 7.29848 25.4677C7.34504 25.4439 7.39762 25.4352 7.44912 25.4429C7.50063 25.4506 7.54859 25.4743 7.58652 25.5109L9.51718 27.4104C9.66114 27.5554 9.51718 27.848 9.30425 27.848L9.30667 27.8498ZM18.5364 30.3951L17.3917 31.5671C17.3538 31.6181 17.305 31.6595 17.249 31.688C17.1929 31.7165 17.1311 31.7314 17.0686 31.7314C17.006 31.7314 16.9443 31.7165 16.8883 31.688C16.8323 31.6595 16.7833 31.6181 16.7455 31.5671L15.5312 30.397C15.5008 30.362 15.4799 30.3194 15.4707 30.2733C15.4616 30.2274 15.4644 30.1798 15.479 30.1353C15.4937 30.0909 15.5196 30.0512 15.554 30.0203C15.5884 29.9894 15.6303 29.9684 15.6752 29.9595H18.318C18.37 29.9527 18.4228 29.9625 18.4692 29.9876C18.5156 30.0128 18.5532 30.0519 18.5771 30.0997C18.601 30.1475 18.6099 30.2018 18.6026 30.255C18.5953 30.3082 18.5722 30.3578 18.5364 30.397V30.3951ZM19.8178 27.4736L14.0955 27.4792C13.7225 27.5297 13.3431 27.4828 12.9926 27.3429C12.642 27.2031 12.3317 26.9747 12.0903 26.6791L7.94104 22.4443C7.62654 22.1687 7.38351 21.8177 7.2336 21.4226C7.0837 21.0275 7.03157 20.6005 7.08189 20.1797L7.0764 14.4034C7.06914 14.0267 7.13473 13.6523 7.26941 13.3017C7.4041 12.9511 7.60519 12.6313 7.86111 12.3607L12.2227 7.89646C12.4601 7.6666 12.7411 7.48933 13.0483 7.37576C13.3555 7.26219 13.6823 7.21474 14.0082 7.2364L19.8728 7.23264C20.2284 7.17761 20.5917 7.21543 20.9292 7.34262C21.2668 7.46981 21.5674 7.68225 21.8034 7.96022L26.032 12.2688C26.3091 12.511 26.5297 12.8138 26.6776 13.1548C26.8254 13.4959 26.8967 13.8666 26.8863 14.2397L26.8936 20.5247C26.9435 20.8919 26.8896 21.266 26.7382 21.6027C26.5867 21.9394 26.3442 22.2245 26.0393 22.4242L22.0377 26.5941C21.7587 26.9047 21.4136 27.1452 21.0291 27.2969C20.6446 27.4488 20.2312 27.5076 19.8209 27.4692L19.8178 27.4736ZM27.0443 27.1704C26.9717 27.3898 26.8302 27.6817 26.5452 27.6817L24.8977 27.6854C24.8454 27.6916 24.7927 27.6811 24.7464 27.6555C24.7001 27.6299 24.6627 27.5903 24.6391 27.5422C24.6155 27.4941 24.6068 27.4397 24.6144 27.3864C24.6219 27.3332 24.6452 27.2835 24.6811 27.2442L26.541 25.3427C26.5747 25.2969 26.6212 25.2625 26.6745 25.2442C26.7276 25.2259 26.785 25.2245 26.839 25.2402C26.8929 25.2558 26.941 25.2878 26.9769 25.332C27.0128 25.3762 27.0348 25.4305 27.0401 25.4877L27.0443 27.1704ZM29.6132 18.982C29.4699 19.1271 29.1861 18.9857 29.2532 18.837V16.1336C29.1825 15.8411 29.5406 15.7667 29.684 15.9117L30.8305 17.0825C30.9703 17.2994 31.0429 17.5919 30.8305 17.7369L29.6132 18.982Z" fill="#D9B077"/>
<path d="M24.5394 21.7748L17.3032 8.84408C17.0158 8.33273 16.585 8.33273 16.2298 8.84408L9.2328 21.713C9.08944 22.0799 9.2328 22.5167 9.8784 22.5167L23.9677 22.5018C24.4687 22.5018 24.7561 22.2849 24.5413 21.7748H24.5394ZM22.6107 20.9691L12.3082 20.9785C12.2287 20.9892 12.1478 20.977 12.0747 20.9432C12.0016 20.9095 11.9392 20.8555 11.8944 20.7874C11.8497 20.7192 11.8243 20.6396 11.8213 20.5575C11.8183 20.4755 11.8377 20.3942 11.8774 20.3228L17.0195 10.9636C17.2355 10.5986 17.5906 10.6692 17.8127 10.9636L23.0353 20.3834C23.1769 20.7485 22.9646 20.9672 22.6082 20.9672" fill="#D9B077"/>
<path d="M21.8907 19.5083L18.091 12.5701C18.0609 12.52 18.0189 12.4787 17.9689 12.4501C17.9188 12.4214 17.8624 12.4064 17.8051 12.4064C17.7478 12.4064 17.6914 12.4214 17.6413 12.4501C17.5913 12.4787 17.5493 12.52 17.5193 12.5701L13.733 19.4389C13.7114 19.4913 13.7019 19.5482 13.7053 19.6051C13.7086 19.6619 13.7248 19.7172 13.7526 19.7665C13.7803 19.8158 13.8187 19.858 13.865 19.8895C13.9113 19.921 13.964 19.9412 14.0192 19.9483L21.6015 19.9434C21.8876 19.8671 22.0285 19.7958 21.8876 19.5059L21.8907 19.5083ZM20.2401 18.2626L16.3062 18.2682C16.1609 18.2682 16.0932 18.1938 16.1609 18.0482L18.0886 14.5415C18.2325 14.3959 18.3033 14.3959 18.376 14.5415L20.381 18.0419C20.4542 18.1888 20.381 18.2613 20.2395 18.2613" fill="#D9B077"/>
<path d="M131.453 5.33558L131.459 9.57408C131.099 7.31072 129.666 5.33926 126.806 5.34118L121.653 5.34678L121.661 13.1632L116.513 13.1688V12H120.303V9.29531H116.511V8.20147L121.088 8.19395L121.084 5.3474L112.928 5.35492L112.931 8.2034C112.499 6.30771 111.14 5.35947 108.852 5.35869L103.201 5.36551L103.206 12.5257C99.991 13.8433 97.9169 13.4096 97.8427 10.8511C97.8427 8.2209 99.6975 7.55957 102.63 8.43212L102.342 5.5112C98.7654 4.78364 95.9793 5.51872 94.3368 8.44149C94.0486 6.91067 93.1889 5.44741 90.6109 5.37863L84.8897 5.38432L84.9006 13.1352H79.7475V12.0406L83.538 12.0369V9.33223L79.7457 9.33722V8.1677L84.3222 8.16394L84.3154 5.3824L62.7147 5.40427L62.7201 11.2506L59.9267 5.4062L55.8469 5.4118L55.8543 13.1583L50.4906 13.162L50.487 12.0681L54.2812 12.0625L54.2775 9.43102L50.487 9.4347V8.26587L54.9926 8.25896V5.48678L46.9094 5.49431L46.9167 12.5819C43.9878 13.8277 41.6252 13.6126 41.6221 10.7605C41.6221 8.34646 43.8353 7.61951 46.4842 8.5646L46.126 5.56868C41.3329 4.54922 38.0415 6.45445 37.9762 10.9855C37.9799 14.7865 41.9864 17.1199 46.9198 15.6517V15.9442L59.0803 15.9348L59.0748 10.4529L61.7994 15.9285H66.0169L66.0097 8.10269H69.3718L69.3791 15.9211L73.1013 15.9173L73.094 8.16647H76.1712L76.1785 15.9104L88.3375 15.901L88.328 8.15519H89.475C90.1172 8.15519 90.6186 8.37341 90.6203 9.10596C90.5496 9.98105 89.8341 10.2004 88.6188 9.98105L90.2665 15.8998L94.1271 15.8942L92.4795 11.5112C92.8489 11.4209 93.1915 11.2408 93.4781 10.9861C93.7655 10.7314 93.9881 10.4095 94.1271 10.0479C94.1331 16.0404 99.2125 16.7693 103.219 15.521V15.8848H106.726L106.718 8.139H107.862C108.716 8.139 108.934 8.64842 108.938 9.08785C109.012 9.81856 108.155 10.1854 106.936 9.96294L108.656 15.8817L112.305 15.8779L110.727 11.4956C111.228 11.4117 111.699 11.191 112.088 10.8567C112.478 10.5226 112.773 10.0871 112.942 9.59605L112.947 15.8779L127.469 15.8629C129.472 15.8629 130.97 14.3984 131.469 11.9875L131.473 15.8629L135.195 15.8592L135.19 8.11336L138.837 8.1096L138.843 15.8561L142.565 15.8523L142.558 8.10706L145.42 8.10339L145.417 5.32745L131.453 5.33558ZM126.327 13.0895H125.18V8.33902H126.469C127.181 8.33902 127.613 9.14411 127.613 10.6798C127.686 12.3575 127.186 13.0889 126.332 13.0889" fill="#00804C"/>
<path d="M40.8584 29V21.8906H43.0459C43.6709 21.8906 44.2292 22.0322 44.7207 22.3154C45.2155 22.5954 45.6012 22.9958 45.8779 23.5166C46.1546 24.0342 46.293 24.6234 46.293 25.2842V25.6113C46.293 26.2721 46.1562 26.8597 45.8828 27.374C45.6126 27.8883 45.2301 28.2871 44.7354 28.5703C44.2406 28.8535 43.6823 28.9967 43.0605 29H40.8584ZM42.3232 23.0771V27.8232H43.0312C43.6042 27.8232 44.042 27.6361 44.3447 27.2617C44.6475 26.8874 44.8021 26.3519 44.8086 25.6553V25.2793C44.8086 24.5566 44.6589 24.0098 44.3594 23.6387C44.0599 23.2643 43.6221 23.0771 43.0459 23.0771H42.3232ZM53.6396 25.9189H50.8271V27.8232H54.1279V29H49.3623V21.8906H54.1182V23.0771H50.8271V24.7715H53.6396V25.9189ZM60.6738 27.1348C60.6738 26.8581 60.5762 26.6465 60.3809 26.5C60.1855 26.3503 59.834 26.194 59.3262 26.0312C58.8184 25.8652 58.4163 25.7025 58.1201 25.543C57.3128 25.1068 56.9092 24.5192 56.9092 23.7803C56.9092 23.3962 57.0166 23.0544 57.2314 22.7549C57.4495 22.4521 57.7604 22.2161 58.1641 22.0469C58.571 21.8776 59.0267 21.793 59.5312 21.793C60.0391 21.793 60.4915 21.8857 60.8887 22.0713C61.2858 22.2536 61.5934 22.5124 61.8115 22.8477C62.0329 23.1829 62.1436 23.5638 62.1436 23.9902H60.6787C60.6787 23.6647 60.5762 23.4124 60.3711 23.2334C60.166 23.0511 59.8779 22.96 59.5068 22.96C59.1488 22.96 58.8704 23.0365 58.6719 23.1895C58.4733 23.3392 58.374 23.5378 58.374 23.7852C58.374 24.0163 58.4896 24.21 58.7207 24.3662C58.9551 24.5225 59.2985 24.6689 59.751 24.8057C60.5843 25.0563 61.1914 25.3672 61.5723 25.7383C61.9531 26.1094 62.1436 26.5716 62.1436 27.125C62.1436 27.7402 61.9108 28.2236 61.4453 28.5752C60.9798 28.9235 60.3532 29.0977 59.5654 29.0977C59.0186 29.0977 58.5205 28.9984 58.0713 28.7998C57.6221 28.598 57.2786 28.3229 57.041 27.9746C56.8066 27.6263 56.6895 27.2227 56.6895 26.7637H58.1592C58.1592 27.5482 58.6279 27.9404 59.5654 27.9404C59.9137 27.9404 60.1855 27.8704 60.3809 27.7305C60.5762 27.5872 60.6738 27.3887 60.6738 27.1348ZM66.6973 29H65.2324V21.8906H66.6973V29ZM75.6846 28.1016C75.4209 28.4173 75.0482 28.6631 74.5664 28.8389C74.0846 29.0114 73.5508 29.0977 72.9648 29.0977C72.3496 29.0977 71.8092 28.9642 71.3438 28.6973C70.8815 28.4271 70.5234 28.0365 70.2695 27.5254C70.0189 27.0143 69.8903 26.4137 69.8838 25.7236V25.2402C69.8838 24.5306 70.0026 23.917 70.2402 23.3994C70.4811 22.8786 70.8262 22.4814 71.2754 22.208C71.7279 21.9313 72.2568 21.793 72.8623 21.793C73.7054 21.793 74.3646 21.9948 74.8398 22.3984C75.3151 22.7988 75.5967 23.3831 75.6846 24.1514H74.2588C74.1937 23.7445 74.0488 23.4466 73.8242 23.2578C73.6029 23.069 73.2969 22.9746 72.9062 22.9746C72.4082 22.9746 72.029 23.1618 71.7686 23.5361C71.5081 23.9105 71.3763 24.4671 71.373 25.2061V25.6602C71.373 26.4056 71.5146 26.9688 71.7979 27.3496C72.0811 27.7305 72.4961 27.9209 73.043 27.9209C73.5931 27.9209 73.9854 27.8037 74.2197 27.5693V26.3438H72.8867V25.2646H75.6846V28.1016ZM84.6572 29H83.1924L80.3408 24.3223V29H78.876V21.8906H80.3408L83.1973 26.5781V21.8906H84.6572V29ZM96.1133 27.1348C96.1133 26.8581 96.0156 26.6465 95.8203 26.5C95.625 26.3503 95.2734 26.194 94.7656 26.0312C94.2578 25.8652 93.8558 25.7025 93.5596 25.543C92.7523 25.1068 92.3486 24.5192 92.3486 23.7803C92.3486 23.3962 92.4561 23.0544 92.6709 22.7549C92.889 22.4521 93.1999 22.2161 93.6035 22.0469C94.0104 21.8776 94.4661 21.793 94.9707 21.793C95.4785 21.793 95.931 21.8857 96.3281 22.0713C96.7253 22.2536 97.0329 22.5124 97.251 22.8477C97.4723 23.1829 97.583 23.5638 97.583 23.9902H96.1182C96.1182 23.6647 96.0156 23.4124 95.8105 23.2334C95.6055 23.0511 95.3174 22.96 94.9463 22.96C94.5882 22.96 94.3099 23.0365 94.1113 23.1895C93.9128 23.3392 93.8135 23.5378 93.8135 23.7852C93.8135 24.0163 93.929 24.21 94.1602 24.3662C94.3945 24.5225 94.738 24.6689 95.1904 24.8057C96.0238 25.0563 96.6309 25.3672 97.0117 25.7383C97.3926 26.1094 97.583 26.5716 97.583 27.125C97.583 27.7402 97.3503 28.2236 96.8848 28.5752C96.4193 28.9235 95.7926 29.0977 95.0049 29.0977C94.458 29.0977 93.96 28.9984 93.5107 28.7998C93.0615 28.598 92.7181 28.3229 92.4805 27.9746C92.2461 27.6263 92.1289 27.2227 92.1289 26.7637H93.5986C93.5986 27.5482 94.0674 27.9404 95.0049 27.9404C95.3532 27.9404 95.625 27.8704 95.8203 27.7305C96.0156 27.5872 96.1133 27.3887 96.1133 27.1348ZM103.03 25.0938L104.51 21.8906H106.111L103.777 26.4219V29H102.288V26.4219L99.9541 21.8906H101.561L103.03 25.0938ZM112.369 27.1348C112.369 26.8581 112.271 26.6465 112.076 26.5C111.881 26.3503 111.529 26.194 111.021 26.0312C110.514 25.8652 110.112 25.7025 109.815 25.543C109.008 25.1068 108.604 24.5192 108.604 23.7803C108.604 23.3962 108.712 23.0544 108.927 22.7549C109.145 22.4521 109.456 22.2161 109.859 22.0469C110.266 21.8776 110.722 21.793 111.227 21.793C111.734 21.793 112.187 21.8857 112.584 22.0713C112.981 22.2536 113.289 22.5124 113.507 22.8477C113.728 23.1829 113.839 23.5638 113.839 23.9902H112.374C112.374 23.6647 112.271 23.4124 112.066 23.2334C111.861 23.0511 111.573 22.96 111.202 22.96C110.844 22.96 110.566 23.0365 110.367 23.1895C110.169 23.3392 110.069 23.5378 110.069 23.7852C110.069 24.0163 110.185 24.21 110.416 24.3662C110.65 24.5225 110.994 24.6689 111.446 24.8057C112.28 25.0563 112.887 25.3672 113.268 25.7383C113.648 26.1094 113.839 26.5716 113.839 27.125C113.839 27.7402 113.606 28.2236 113.141 28.5752C112.675 28.9235 112.049 29.0977 111.261 29.0977C110.714 29.0977 110.216 28.9984 109.767 28.7998C109.317 28.598 108.974 28.3229 108.736 27.9746C108.502 27.6263 108.385 27.2227 108.385 26.7637H109.854C109.854 27.5482 110.323 27.9404 111.261 27.9404C111.609 27.9404 111.881 27.8704 112.076 27.7305C112.271 27.5872 112.369 27.3887 112.369 27.1348ZM122.187 23.0771H120.009V29H118.544V23.0771H116.396V21.8906H122.187V23.0771ZM129.304 25.9189H126.491V27.8232H129.792V29H125.026V21.8906H129.782V23.0771H126.491V24.7715H129.304V25.9189ZM134.565 21.8906L136.392 27.0469L138.208 21.8906H140.132V29H138.662V27.0566L138.809 23.7021L136.89 29H135.884L133.97 23.707L134.116 27.0566V29H132.651V21.8906H134.565Z" fill="#D9B077"/>
</g>
<defs>
<clipPath id="clip0">
<rect width="145" height="35" fill="white"/>
</clipPath>
</defs>
</svg>
