<svg width="620" height="216" viewBox="0 0 620 216" fill="none" xmlns="http://www.w3.org/2000/svg">
<rect width="620" height="216" fill="#1B1B20"/>
<mask id="mask0" mask-type="alpha" maskUnits="userSpaceOnUse" x="0" y="0" width="620" height="216">
<rect width="620" height="216" fill="white"/>
<rect width="620" height="216" stroke="white"/>
</mask>
<g mask="url(#mask0)">
<path d="M544.748 38.0097C553.884 37.7175 563.48 38.4272 568.512 41.7606C573.521 45.0939 573.987 51.051 573.945 56.9872C573.891 62.9165 573.341 68.832 568.31 73.4393C563.267 78.0536 553.755 81.3668 543.4 81.884C533.045 82.4011 521.87 80.1363 515.541 75.5211C509.213 70.9199 507.732 63.9822 509.006 57.828C510.268 51.6668 514.295 46.2961 520.634 42.9496C526.973 39.6172 535.624 38.309 544.748 38.0097Z" fill="#3F3D56"/>
<path d="M79.7486 31.7084C83.5917 31.5833 87.6284 31.8796 89.7429 33.2806C91.8479 34.6817 92.0402 37.1875 92.0189 39.6848C91.9928 42.179 91.7577 44.6677 89.6384 46.607C87.5143 48.5493 83.5108 49.9453 79.1544 50.1653C74.798 50.3853 70.0982 49.4353 67.439 47.4952C64.7797 45.5611 64.161 42.643 64.7004 40.0538C65.2351 37.4617 66.9325 35.2014 69.6013 33.7922C72.2701 32.3888 75.9102 31.8364 79.7486 31.7084Z" fill="#3F3D56"/>
</g>
<g clip-path="url(#clip0)">
<path d="M292.692 38.0779L251.449 47.3957C249.759 47.7774 248.699 49.4544 249.081 51.1413L263.262 113.691C263.645 115.378 265.325 116.436 267.015 116.054L308.258 106.736C309.948 106.354 311.008 104.677 310.625 102.991L296.444 40.441C296.062 38.7541 294.382 37.6961 292.692 38.0779Z" fill="#4D565F"/>
<path d="M253.153 58.7106C253.927 58.7106 254.554 58.0845 254.554 57.3121C254.554 56.5397 253.927 55.9136 253.153 55.9136C252.379 55.9136 251.752 56.5397 251.752 57.3121C251.752 58.0845 252.379 58.7106 253.153 58.7106Z" fill="white"/>
<path d="M254.554 63.8385C255.328 63.8385 255.955 63.2124 255.955 62.44C255.955 61.6676 255.328 61.0415 254.554 61.0415C253.78 61.0415 253.153 61.6676 253.153 62.44C253.153 63.2124 253.78 63.8385 254.554 63.8385Z" fill="white"/>
<path d="M263.66 101.365C264.434 101.365 265.061 100.739 265.061 99.9669C265.061 99.1945 264.434 98.5684 263.66 98.5684C262.887 98.5684 262.26 99.1945 262.26 99.9669C262.26 100.739 262.887 101.365 263.66 101.365Z" fill="white"/>
<path d="M265.061 106.493C265.835 106.493 266.462 105.867 266.462 105.095C266.462 104.322 265.835 103.696 265.061 103.696C264.288 103.696 263.66 104.322 263.66 105.095C263.66 105.867 264.288 106.493 265.061 106.493Z" fill="white"/>
<path d="M292.518 64.0912L264.079 70.5161L265.152 75.2476L293.591 68.8227L292.518 64.0912Z" fill="#F5F5F5"/>
<path d="M358.255 48.4108L280.139 77.8359L315.893 172.421L394.009 142.996L358.255 48.4108Z" fill="#80868C"/>
<path d="M356.974 129.727L321.894 142.941L322.44 144.385L357.519 131.171L356.974 129.727Z" fill="#E9F7EF"/>
<path d="M382.671 129.945L325.169 151.605L325.715 153.049L383.217 131.389L382.671 129.945Z" fill="#E9F7EF"/>
<path d="M379.396 121.281L364.568 126.866L365.114 128.31L379.942 122.725L379.396 121.281Z" fill="#6C63FF"/>
<path d="M338.359 141.688L323.531 147.273L324.077 148.717L338.905 143.132L338.359 141.688Z" fill="#E9F7EF"/>
<path d="M359.696 133.65L344.869 139.235L345.415 140.679L360.242 135.094L359.696 133.65Z" fill="#E9F7EF"/>
<path d="M381.033 125.613L366.206 131.198L366.752 132.642L381.579 127.057L381.033 125.613Z" fill="#6C63FF"/>
<path d="M349.444 77.8203L306.046 94.1675L312.05 110.052L355.448 93.7048L349.444 77.8203Z" fill="#E9F7EF"/>
<g opacity="0.5">
<path opacity="0.5" d="M385.312 82.7183H384.612V86.6807H385.312V82.7183Z" fill="#47E6B1"/>
<path opacity="0.5" d="M386.947 85.0494V84.3501H382.977V85.0494H386.947Z" fill="#47E6B1"/>
</g>
<g opacity="0.5">
<path opacity="0.5" d="M261.092 129.103H260.392V133.065H261.092V129.103Z" fill="#47E6B1"/>
<path opacity="0.5" d="M262.727 131.434V130.734H258.757V131.434H262.727Z" fill="#47E6B1"/>
</g>
<g opacity="0.5">
<path opacity="0.5" d="M289.579 157.306H288.878V161.269H289.579V157.306Z" fill="#47E6B1"/>
<path opacity="0.5" d="M291.213 159.637V158.938H287.244V159.637H291.213Z" fill="#47E6B1"/>
</g>
<path opacity="0.5" d="M391.198 173.924C391.005 173.84 390.85 173.688 390.762 173.497C390.673 173.307 390.659 173.09 390.72 172.889C390.73 172.858 390.736 172.826 390.739 172.794V172.794C390.744 172.702 390.72 172.61 390.67 172.533C390.619 172.456 390.545 172.397 390.458 172.365C390.371 172.333 390.277 172.33 390.188 172.356C390.099 172.382 390.021 172.436 389.966 172.509V172.509C389.947 172.535 389.931 172.564 389.918 172.594C389.834 172.786 389.682 172.941 389.491 173.029C389.299 173.117 389.083 173.132 388.881 173.071C388.85 173.061 388.818 173.055 388.786 173.052V173.052C388.694 173.047 388.602 173.071 388.525 173.121C388.447 173.172 388.388 173.246 388.356 173.332C388.324 173.419 388.321 173.513 388.347 173.602C388.373 173.691 388.427 173.768 388.501 173.824V173.824C388.527 173.843 388.555 173.859 388.585 173.871C388.778 173.955 388.934 174.107 389.022 174.298C389.11 174.489 389.125 174.706 389.063 174.907C389.053 174.937 389.047 174.969 389.045 175.002V175.002C389.039 175.094 389.063 175.185 389.114 175.262C389.164 175.34 389.239 175.399 389.325 175.431C389.412 175.463 389.507 175.466 389.595 175.44C389.684 175.414 389.762 175.36 389.818 175.286C389.837 175.26 389.853 175.232 389.865 175.202C389.949 175.009 390.102 174.854 390.293 174.766C390.484 174.678 390.701 174.663 390.902 174.725C390.933 174.735 390.965 174.741 390.997 174.743V174.743C391.09 174.749 391.181 174.725 391.259 174.674C391.336 174.624 391.395 174.55 391.427 174.463C391.459 174.377 391.462 174.282 391.436 174.194C391.41 174.105 391.356 174.027 391.283 173.972V173.972C391.256 173.953 391.228 173.937 391.198 173.924V173.924Z" fill="#4D8AF0"/>
<path opacity="0.5" d="M373.452 197.466C373.259 197.382 373.104 197.23 373.016 197.039C372.928 196.848 372.913 196.632 372.974 196.43C372.984 196.4 372.991 196.368 372.993 196.335V196.335C372.999 196.243 372.974 196.152 372.924 196.075C372.873 195.997 372.799 195.938 372.712 195.906C372.626 195.874 372.531 195.871 372.442 195.897C372.354 195.923 372.276 195.977 372.22 196.051V196.051C372.201 196.077 372.185 196.105 372.172 196.135C372.088 196.328 371.936 196.483 371.745 196.571C371.554 196.659 371.337 196.674 371.135 196.612C371.105 196.602 371.073 196.596 371.04 196.594V196.594C370.948 196.588 370.856 196.612 370.779 196.663C370.702 196.713 370.643 196.787 370.611 196.874C370.579 196.96 370.575 197.055 370.601 197.144C370.627 197.232 370.681 197.31 370.755 197.365C370.781 197.385 370.81 197.4 370.84 197.413C371.033 197.497 371.188 197.649 371.276 197.84C371.364 198.03 371.379 198.247 371.318 198.448C371.308 198.479 371.302 198.511 371.299 198.543C371.293 198.635 371.318 198.727 371.368 198.804C371.419 198.881 371.493 198.94 371.58 198.972C371.666 199.004 371.761 199.007 371.85 198.981C371.938 198.955 372.016 198.901 372.072 198.828V198.828C372.091 198.802 372.107 198.773 372.12 198.743C372.204 198.551 372.356 198.396 372.547 198.308C372.738 198.22 372.955 198.205 373.157 198.266C373.187 198.276 373.219 198.282 373.252 198.285V198.285C373.344 198.29 373.436 198.266 373.513 198.216C373.59 198.165 373.65 198.091 373.682 198.005C373.714 197.918 373.717 197.824 373.691 197.735C373.665 197.646 373.611 197.569 373.537 197.513V197.513C373.511 197.494 373.482 197.478 373.452 197.466V197.466Z" fill="#4D8AF0"/>
<path opacity="0.5" d="M217.87 139.815C217.677 139.731 217.521 139.579 217.433 139.388C217.345 139.197 217.33 138.981 217.392 138.78C217.401 138.749 217.408 138.717 217.41 138.685V138.685C217.416 138.592 217.392 138.501 217.341 138.424C217.29 138.346 217.216 138.287 217.13 138.256C217.043 138.224 216.948 138.22 216.859 138.246C216.771 138.272 216.693 138.326 216.637 138.4V138.4C216.618 138.426 216.602 138.454 216.59 138.484C216.506 138.677 216.353 138.832 216.162 138.92C215.971 139.008 215.754 139.023 215.553 138.962C215.522 138.952 215.49 138.945 215.457 138.943V138.943C215.365 138.937 215.274 138.961 215.196 139.012C215.119 139.062 215.06 139.136 215.028 139.223C214.996 139.31 214.992 139.404 215.019 139.493C215.045 139.581 215.099 139.659 215.172 139.714V139.714C215.199 139.734 215.227 139.75 215.257 139.762C215.45 139.846 215.605 139.998 215.693 140.189C215.782 140.38 215.796 140.596 215.735 140.797C215.725 140.828 215.719 140.86 215.716 140.892V140.892C215.711 140.984 215.735 141.076 215.785 141.153C215.836 141.23 215.91 141.289 215.997 141.321C216.083 141.353 216.178 141.356 216.267 141.33C216.356 141.304 216.434 141.25 216.489 141.177V141.177C216.508 141.151 216.524 141.122 216.537 141.092C216.621 140.9 216.773 140.745 216.964 140.657C217.155 140.569 217.372 140.554 217.574 140.615C217.605 140.625 217.637 140.631 217.669 140.634C217.761 140.639 217.853 140.615 217.93 140.565C218.008 140.514 218.067 140.44 218.099 140.354C218.131 140.267 218.134 140.173 218.108 140.084C218.082 139.996 218.028 139.918 217.954 139.862V139.862C217.928 139.843 217.9 139.827 217.87 139.815Z" fill="#4D8AF0"/>
<path opacity="0.5" d="M314.796 58.7106C315.57 58.7106 316.197 58.0845 316.197 57.3121C316.197 56.5397 315.57 55.9136 314.796 55.9136C314.023 55.9136 313.395 56.5397 313.395 57.3121C313.395 58.0845 314.023 58.7106 314.796 58.7106Z" fill="#F55F44"/>
<path opacity="0.5" d="M237.509 95.3053C238.283 95.3053 238.91 94.6792 238.91 93.9068C238.91 93.1344 238.283 92.5083 237.509 92.5083C236.735 92.5083 236.108 93.1344 236.108 93.9068C236.108 94.6792 236.735 95.3053 237.509 95.3053Z" fill="#4D8AF0"/>
<path opacity="0.5" d="M403.599 133.843C404.373 133.843 405 133.217 405 132.445C405 131.673 404.373 131.046 403.599 131.046C402.825 131.046 402.198 131.673 402.198 132.445C402.198 133.217 402.825 133.843 403.599 133.843Z" fill="#47E6B1"/>
<path opacity="0.5" d="M220.538 108.204C221.311 108.204 221.939 107.578 221.939 106.805C221.939 106.033 221.311 105.407 220.538 105.407C219.764 105.407 219.137 106.033 219.137 106.805C219.137 107.578 219.764 108.204 220.538 108.204Z" fill="#F55F44"/>
<g opacity="0.5">
<path opacity="0.5" d="M366.011 92.6978L365.543 140.236L380.103 140.379L380.571 92.8406L366.011 92.6978Z" fill="url(#paint0_linear)"/>
</g>
<path d="M380.329 93.1563L366.486 93.0205L366.024 139.923L379.868 140.059L380.329 93.1563Z" fill="#E0E0E0"/>
<path d="M378.306 93.8904L368.52 93.7944L368.424 103.563L378.21 103.659L378.306 93.8904Z" fill="#4D8AF0"/>
<path opacity="0.5" d="M378.19 105.685L368.404 105.589L368.308 115.358L378.094 115.454L378.19 105.685Z" fill="#4D8AF0"/>
<path opacity="0.3" d="M378.074 117.479L368.288 117.383L368.192 127.152L377.978 127.248L378.074 117.479Z" fill="#4D8AF0"/>
<g opacity="0.5">
<path opacity="0.5" d="M365.11 95.4294L351.245 99.8687L365.737 144.969L379.601 140.53L365.11 95.4294Z" fill="url(#paint1_linear)"/>
</g>
<path d="M364.98 95.8034L351.797 100.024L366.094 144.519L379.277 140.298L364.98 95.8034Z" fill="#F5F5F5"/>
<path d="M363.287 97.1378L353.968 100.122L356.957 109.424L366.276 106.44L363.287 97.1378Z" fill="#FF5252"/>
<path opacity="0.5" d="M366.896 108.369L357.577 111.353L360.566 120.655L369.885 117.671L366.896 108.369Z" fill="#FF5252"/>
<path opacity="0.3" d="M370.504 119.6L361.186 122.583L364.175 131.886L373.493 128.902L370.504 119.6Z" fill="#FF5252"/>
<g opacity="0.5">
<path opacity="0.5" d="M356.5 98.6722L343.825 105.825L367.173 147.057L379.849 139.905L356.5 98.6722Z" fill="url(#paint2_linear)"/>
</g>
<path d="M356.449 99.0665L344.397 105.867L367.432 146.546L379.484 139.745L356.449 99.0665Z" fill="#F5F5F5"/>
<path d="M355.057 100.718L346.537 105.526L351.353 114.031L359.873 109.223L355.057 100.718Z" fill="#69F0AE"/>
<path opacity="0.5" d="M360.871 110.987L352.352 115.794L357.167 124.299L365.687 119.491L360.871 110.987Z" fill="#69F0AE"/>
<path opacity="0.3" d="M366.685 121.254L358.166 126.062L362.982 134.566L371.501 129.759L366.685 121.254Z" fill="#69F0AE"/>
<g opacity="0.5">
<path opacity="0.5" d="M351.411 102.25L339.734 110.933L368.077 148.917L379.754 140.235L351.411 102.25Z" fill="url(#paint3_linear)"/>
</g>
<path d="M351.41 102.647L340.307 110.903L368.269 148.377L379.372 140.122L351.41 102.647Z" fill="white"/>
<path d="M350.234 104.462L342.385 110.298L348.231 118.133L356.08 112.297L350.234 104.462Z" fill="#6C63FF"/>
<path opacity="0.5" d="M357.292 113.921L349.443 119.757L355.289 127.592L363.138 121.756L357.292 113.921Z" fill="#6C63FF"/>
<path opacity="0.3" d="M364.35 123.38L356.501 129.216L362.347 137.051L370.196 131.215L364.35 123.38Z" fill="#6C63FF"/>
</g>
<defs>
<linearGradient id="paint0_linear" x1="372.823" y1="140.308" x2="373.29" y2="92.7692" gradientUnits="userSpaceOnUse">
<stop stop-color="#808080" stop-opacity="0.25"/>
<stop offset="0.53514" stop-color="#808080" stop-opacity="0.12"/>
<stop offset="1" stop-color="#808080" stop-opacity="0.1"/>
</linearGradient>
<linearGradient id="paint1_linear" x1="19905.9" y1="32440.4" x2="16970.6" y2="23272.8" gradientUnits="userSpaceOnUse">
<stop stop-color="#808080" stop-opacity="0.25"/>
<stop offset="0.53514" stop-color="#808080" stop-opacity="0.12"/>
<stop offset="1" stop-color="#808080" stop-opacity="0.1"/>
</linearGradient>
<linearGradient id="paint2_linear" x1="25996.3" y1="28676" x2="21264.5" y2="20290.3" gradientUnits="userSpaceOnUse">
<stop stop-color="#808080" stop-opacity="0.25"/>
<stop offset="0.53514" stop-color="#808080" stop-opacity="0.12"/>
<stop offset="1" stop-color="#808080" stop-opacity="0.1"/>
</linearGradient>
<linearGradient id="paint3_linear" x1="29713.6" y1="26078.4" x2="23967.3" y2="18350.1" gradientUnits="userSpaceOnUse">
<stop stop-color="#808080" stop-opacity="0.25"/>
<stop offset="0.53514" stop-color="#808080" stop-opacity="0.12"/>
<stop offset="1" stop-color="#808080" stop-opacity="0.1"/>
</linearGradient>
<clipPath id="clip0">
<rect x="215" y="38" width="190" height="161" fill="white"/>
</clipPath>
</defs>
</svg>
