<svg width="620" height="348" viewBox="0 0 620 348" fill="none" xmlns="http://www.w3.org/2000/svg">
<rect width="620" height="348" fill="#1B1B20"/>
<mask id="mask0" mask-type="alpha" maskUnits="userSpaceOnUse" x="0" y="0" width="620" height="348">
<rect width="620" height="348" fill="white"/>
<rect width="620" height="348" stroke="white"/>
</mask>
<g mask="url(#mask0)">
<path d="M544.748 61.2383C553.884 60.7675 563.48 61.911 568.512 67.2814C573.521 72.6518 573.987 82.2493 573.945 91.8132C573.891 101.366 573.341 110.896 568.31 118.319C563.267 125.754 553.755 131.091 543.4 131.925C533.045 132.758 521.87 129.109 515.541 121.673C509.213 114.26 507.732 103.083 509.006 93.1678C510.268 83.2415 514.295 74.5887 520.634 69.1971C526.973 63.8282 535.624 61.7205 544.748 61.2383Z" fill="#3F3D56"/>
<path d="M79.7486 51.0864C83.5917 50.8849 87.6284 51.3622 89.7429 53.6195C91.8479 55.8768 92.0402 59.914 92.0189 63.9373C91.9928 67.9559 91.7577 71.9653 89.6384 75.0898C87.5143 78.2191 83.5108 80.4682 79.1544 80.8226C74.798 81.1771 70.0982 79.6464 67.439 76.5209C64.7797 73.4048 64.161 68.7034 64.7004 64.5319C65.2351 60.3557 66.9325 56.7142 69.6013 54.4437C72.2701 52.1827 75.9102 51.2927 79.7486 51.0864Z" fill="#3F3D56"/>
</g>
<g clip-path="url(#clip0)">
<path d="M250.801 49.1385L177.648 65.6905C174.651 66.3687 172.771 69.3477 173.45 72.3442L198.602 183.457C199.28 186.454 202.26 188.333 205.257 187.655L278.41 171.103C281.408 170.425 283.287 167.446 282.609 164.449L257.457 53.3363C256.778 50.3397 253.799 48.4603 250.801 49.1385Z" fill="#4D565F"/>
<path d="M180.672 85.79C182.044 85.79 183.157 84.6777 183.157 83.3056C183.157 81.9336 182.044 80.8213 180.672 80.8213C179.299 80.8213 178.187 81.9336 178.187 83.3056C178.187 84.6777 179.299 85.79 180.672 85.79Z" fill="white"/>
<path d="M183.157 94.8993C184.529 94.8993 185.641 93.787 185.641 92.415C185.641 91.0429 184.529 89.9307 183.157 89.9307C181.784 89.9307 180.672 91.0429 180.672 92.415C180.672 93.787 181.784 94.8993 183.157 94.8993Z" fill="white"/>
<path d="M199.308 161.562C200.681 161.562 201.793 160.45 201.793 159.078C201.793 157.706 200.681 156.594 199.308 156.594C197.936 156.594 196.823 157.706 196.823 159.078C196.823 160.45 197.936 161.562 199.308 161.562Z" fill="white"/>
<path d="M201.793 170.671C203.166 170.671 204.278 169.559 204.278 168.187C204.278 166.815 203.166 165.703 201.793 165.703C200.421 165.703 199.308 166.815 199.308 168.187C199.308 169.559 200.421 170.671 201.793 170.671Z" fill="white"/>
<path d="M250.493 95.348L200.051 106.761L201.954 115.166L252.395 103.753L250.493 95.348Z" fill="#F5F5F5"/>
<path d="M367.089 67.4939L228.536 119.765L291.953 287.786L430.506 235.515L367.089 67.4939Z" fill="#80868C"/>
<path d="M364.816 211.944L302.596 235.417L303.564 237.982L365.785 214.509L364.816 211.944Z" fill="#E9F7EF"/>
<path d="M410.395 212.331L308.405 250.808L309.373 253.373L411.363 214.896L410.395 212.331Z" fill="#E9F7EF"/>
<path d="M404.586 196.94L378.287 206.861L379.255 209.427L405.554 199.505L404.586 196.94Z" fill="#6C63FF"/>
<path d="M331.8 233.191L305.501 243.112L306.469 245.677L332.768 235.756L331.8 233.191Z" fill="#E9F7EF"/>
<path d="M369.645 218.913L343.346 228.835L344.314 231.4L370.613 221.478L369.645 218.913Z" fill="#E9F7EF"/>
<path d="M407.491 204.635L381.191 214.557L382.159 217.122L408.459 207.201L407.491 204.635Z" fill="#6C63FF"/>
<path d="M351.46 119.737L274.487 148.776L285.137 176.993L362.11 147.954L351.46 119.737Z" fill="#E9F7EF"/>
<g opacity="0.5">
<path opacity="0.5" d="M415.08 128.438H413.838V135.477H415.08V128.438Z" fill="#47E6B1"/>
<path opacity="0.5" d="M417.979 132.579V131.336H410.939V132.579H417.979Z" fill="#47E6B1"/>
</g>
<g opacity="0.5">
<path opacity="0.5" d="M194.753 210.835H193.51V217.874H194.753V210.835Z" fill="#47E6B1"/>
<path opacity="0.5" d="M197.652 214.976V213.733H190.611V214.976H197.652Z" fill="#47E6B1"/>
</g>
<g opacity="0.5">
<path opacity="0.5" d="M245.279 260.936H244.036V267.974H245.279V260.936Z" fill="#47E6B1"/>
<path opacity="0.5" d="M248.178 265.076V263.834H241.137V265.076H248.178Z" fill="#47E6B1"/>
</g>
<path opacity="0.5" d="M425.52 290.456C425.177 290.306 424.902 290.037 424.745 289.698C424.589 289.359 424.563 288.974 424.672 288.617C424.69 288.562 424.701 288.505 424.705 288.448C424.715 288.284 424.672 288.122 424.582 287.985C424.493 287.847 424.361 287.743 424.207 287.686C424.054 287.629 423.886 287.623 423.728 287.67C423.571 287.716 423.433 287.811 423.334 287.942C423.3 287.989 423.272 288.039 423.25 288.092C423.1 288.434 422.831 288.71 422.491 288.866C422.152 289.023 421.767 289.049 421.41 288.94C421.356 288.922 421.299 288.911 421.241 288.907C421.078 288.897 420.915 288.94 420.778 289.029C420.641 289.119 420.536 289.25 420.479 289.404C420.422 289.558 420.417 289.726 420.463 289.883C420.509 290.041 420.605 290.179 420.736 290.278C420.782 290.311 420.832 290.34 420.886 290.362C421.228 290.511 421.504 290.781 421.66 291.12C421.816 291.459 421.842 291.844 421.734 292.201C421.716 292.256 421.705 292.312 421.7 292.37C421.69 292.533 421.733 292.696 421.823 292.833C421.913 292.97 422.044 293.075 422.198 293.132C422.352 293.188 422.52 293.194 422.677 293.148C422.835 293.102 422.973 293.006 423.071 292.875C423.105 292.829 423.134 292.778 423.156 292.725C423.305 292.383 423.575 292.108 423.914 291.951C424.253 291.795 424.638 291.769 424.995 291.878C425.05 291.895 425.107 291.906 425.164 291.911C425.328 291.921 425.49 291.878 425.627 291.788C425.765 291.698 425.869 291.567 425.926 291.413C425.983 291.259 425.989 291.091 425.942 290.934C425.896 290.777 425.801 290.639 425.67 290.54C425.623 290.506 425.573 290.478 425.52 290.456Z" fill="#4D8AF0"/>
<path opacity="0.5" d="M394.044 332.275C393.702 332.126 393.426 331.856 393.27 331.517C393.114 331.178 393.088 330.793 393.197 330.436C393.214 330.381 393.225 330.325 393.23 330.267C393.24 330.104 393.197 329.941 393.107 329.804C393.017 329.667 392.886 329.562 392.732 329.505C392.578 329.448 392.41 329.443 392.253 329.489C392.096 329.535 391.957 329.631 391.859 329.762C391.825 329.808 391.796 329.858 391.774 329.911C391.625 330.254 391.355 330.529 391.016 330.686C390.677 330.842 390.292 330.868 389.935 330.759C389.88 330.742 389.823 330.731 389.766 330.726C389.602 330.716 389.44 330.759 389.303 330.849C389.165 330.938 389.061 331.07 389.004 331.224C388.947 331.377 388.941 331.545 388.988 331.703C389.034 331.86 389.129 331.998 389.26 332.097C389.307 332.131 389.357 332.159 389.41 332.181C389.753 332.33 390.028 332.6 390.185 332.939C390.341 333.278 390.367 333.663 390.258 334.02C390.241 334.075 390.229 334.132 390.225 334.189C390.215 334.353 390.258 334.515 390.348 334.652C390.437 334.79 390.569 334.894 390.723 334.951C390.877 335.008 391.045 335.013 391.202 334.967C391.359 334.921 391.497 334.825 391.596 334.695C391.63 334.648 391.658 334.598 391.681 334.545C391.83 334.202 392.099 333.927 392.439 333.771C392.778 333.614 393.163 333.588 393.52 333.697C393.575 333.715 393.631 333.726 393.689 333.73C393.852 333.74 394.015 333.697 394.152 333.607C394.289 333.518 394.394 333.386 394.451 333.233C394.508 333.079 394.513 332.911 394.467 332.753C394.421 332.596 394.325 332.458 394.194 332.359C394.148 332.325 394.098 332.297 394.044 332.275Z" fill="#4D8AF0"/>
<path opacity="0.5" d="M118.09 229.863C117.747 229.714 117.472 229.444 117.315 229.105C117.159 228.766 117.133 228.382 117.242 228.024C117.259 227.97 117.271 227.913 117.275 227.856C117.285 227.692 117.242 227.53 117.152 227.392C117.063 227.255 116.931 227.15 116.777 227.094C116.623 227.037 116.455 227.031 116.298 227.077C116.141 227.124 116.003 227.219 115.904 227.35C115.87 227.396 115.842 227.447 115.819 227.5C115.67 227.842 115.401 228.118 115.061 228.274C114.722 228.43 114.337 228.457 113.98 228.348C113.925 228.33 113.869 228.319 113.811 228.315C113.648 228.305 113.485 228.348 113.348 228.437C113.211 228.527 113.106 228.658 113.049 228.812C112.992 228.966 112.987 229.134 113.033 229.291C113.079 229.448 113.175 229.587 113.306 229.685C113.352 229.719 113.402 229.747 113.456 229.77C113.798 229.919 114.074 230.188 114.23 230.528C114.386 230.867 114.412 231.251 114.303 231.608C114.286 231.663 114.275 231.72 114.27 231.777C114.26 231.941 114.303 232.103 114.393 232.241C114.483 232.378 114.614 232.483 114.768 232.539C114.922 232.596 115.09 232.602 115.247 232.556C115.404 232.509 115.543 232.414 115.641 232.283C115.675 232.236 115.704 232.186 115.726 232.133C115.875 231.791 116.145 231.515 116.484 231.359C116.823 231.203 117.208 231.176 117.565 231.285C117.62 231.303 117.676 231.314 117.734 231.318C117.898 231.328 118.06 231.285 118.197 231.196C118.335 231.106 118.439 230.975 118.496 230.821C118.553 230.667 118.559 230.499 118.512 230.342C118.466 230.185 118.371 230.046 118.24 229.948C118.193 229.914 118.143 229.885 118.09 229.863Z" fill="#4D8AF0"/>
<path opacity="0.5" d="M290.007 85.79C291.379 85.79 292.492 84.6777 292.492 83.3056C292.492 81.9336 291.379 80.8213 290.007 80.8213C288.635 80.8213 287.522 81.9336 287.522 83.3056C287.522 84.6777 288.635 85.79 290.007 85.79Z" fill="#F55F44"/>
<path opacity="0.5" d="M152.924 150.797C154.296 150.797 155.409 149.685 155.409 148.312C155.409 146.94 154.296 145.828 152.924 145.828C151.551 145.828 150.439 146.94 150.439 148.312C150.439 149.685 151.551 150.797 152.924 150.797Z" fill="#4D8AF0"/>
<path opacity="0.5" d="M447.515 219.256C448.887 219.256 450 218.143 450 216.771C450 215.399 448.887 214.287 447.515 214.287C446.143 214.287 445.03 215.399 445.03 216.771C445.03 218.143 446.143 219.256 447.515 219.256Z" fill="#47E6B1"/>
<path opacity="0.5" d="M122.822 173.71C124.195 173.71 125.307 172.598 125.307 171.226C125.307 169.853 124.195 168.741 122.822 168.741C121.45 168.741 120.337 169.853 120.337 171.226C120.337 172.598 121.45 173.71 122.822 173.71Z" fill="#F55F44"/>
<g opacity="0.5">
<path opacity="0.5" d="M380.847 146.165L380.017 230.612L405.841 230.866L406.671 146.419L380.847 146.165Z" fill="url(#paint0_linear)"/>
</g>
<path d="M406.242 146.979L381.688 146.738L380.869 230.056L405.423 230.297L406.242 146.979Z" fill="#E0E0E0"/>
<path d="M402.653 148.284L385.296 148.114L385.125 165.467L402.483 165.638L402.653 148.284Z" fill="#4D8AF0"/>
<path opacity="0.5" d="M402.447 169.235L385.09 169.064L384.919 186.418L402.277 186.588L402.447 169.235Z" fill="#4D8AF0"/>
<path opacity="0.3" d="M402.241 190.186L384.884 190.016L384.713 207.369L402.071 207.54L402.241 190.186Z" fill="#4D8AF0"/>
<g opacity="0.5">
<path opacity="0.5" d="M379.248 151.016L354.656 158.902L380.359 239.019L404.951 231.133L379.248 151.016Z" fill="url(#paint1_linear)"/>
</g>
<path d="M379.017 151.682L355.635 159.18L380.993 238.221L404.375 230.723L379.017 151.682Z" fill="#F5F5F5"/>
<path d="M376.014 154.052L359.486 159.352L364.787 175.877L381.316 170.577L376.014 154.052Z" fill="#FF5252"/>
<path opacity="0.5" d="M382.415 174.003L365.886 179.303L371.188 195.828L387.717 190.528L382.415 174.003Z" fill="#FF5252"/>
<path opacity="0.3" d="M388.816 193.954L372.287 199.254L377.589 215.779L394.117 210.479L388.816 193.954Z" fill="#FF5252"/>
<g opacity="0.5">
<path opacity="0.5" d="M363.977 156.778L341.495 169.483L382.907 242.728L405.389 230.023L363.977 156.778Z" fill="url(#paint2_linear)"/>
</g>
<path d="M363.886 157.478L342.51 169.559L383.366 241.82L404.743 229.739L363.886 157.478Z" fill="#F5F5F5"/>
<path d="M361.417 160.413L346.306 168.953L354.847 184.06L369.958 175.52L361.417 160.413Z" fill="#69F0AE"/>
<path opacity="0.5" d="M371.729 178.653L356.618 187.192L365.16 202.3L380.271 193.76L371.729 178.653Z" fill="#69F0AE"/>
<path opacity="0.3" d="M382.042 196.892L366.931 205.432L375.473 220.54L390.584 212L382.042 196.892Z" fill="#69F0AE"/>
<g opacity="0.5">
<path opacity="0.5" d="M354.95 163.133L334.238 178.557L384.509 246.033L405.221 230.609L354.95 163.133Z" fill="url(#paint3_linear)"/>
</g>
<path d="M354.948 163.839L335.255 178.504L384.851 245.074L404.544 230.409L354.948 163.839Z" fill="white"/>
<path d="M352.862 167.063L338.941 177.43L349.31 191.347L363.231 180.981L352.862 167.063Z" fill="#6C63FF"/>
<path opacity="0.5" d="M365.381 183.866L351.46 194.233L361.829 208.151L375.75 197.784L365.381 183.866Z" fill="#6C63FF"/>
<path opacity="0.3" d="M377.9 200.669L363.979 211.036L374.348 224.953L388.269 214.587L377.9 200.669Z" fill="#6C63FF"/>
</g>
<defs>
<linearGradient id="paint0_linear" x1="392.929" y1="230.739" x2="393.758" y2="146.292" gradientUnits="userSpaceOnUse">
<stop stop-color="#808080" stop-opacity="0.25"/>
<stop offset="0.53514" stop-color="#808080" stop-opacity="0.12"/>
<stop offset="1" stop-color="#808080" stop-opacity="0.1"/>
</linearGradient>
<linearGradient id="paint1_linear" x1="35038.5" y1="57608.5" x2="29817.8" y2="41327.9" gradientUnits="userSpaceOnUse">
<stop stop-color="#808080" stop-opacity="0.25"/>
<stop offset="0.53514" stop-color="#808080" stop-opacity="0.12"/>
<stop offset="1" stop-color="#808080" stop-opacity="0.1"/>
</linearGradient>
<linearGradient id="paint2_linear" x1="45840.9" y1="50921.4" x2="37428.7" y2="36036.2" gradientUnits="userSpaceOnUse">
<stop stop-color="#808080" stop-opacity="0.25"/>
<stop offset="0.53514" stop-color="#808080" stop-opacity="0.12"/>
<stop offset="1" stop-color="#808080" stop-opacity="0.1"/>
</linearGradient>
<linearGradient id="paint3_linear" x1="52434.2" y1="46307" x2="42222" y2="32593.6" gradientUnits="userSpaceOnUse">
<stop stop-color="#808080" stop-opacity="0.25"/>
<stop offset="0.53514" stop-color="#808080" stop-opacity="0.12"/>
<stop offset="1" stop-color="#808080" stop-opacity="0.1"/>
</linearGradient>
<clipPath id="clip0">
<rect x="113" y="49" width="337" height="286" fill="white"/>
</clipPath>
</defs>
</svg>
